<?xml version="1.0" encoding="UTF-8"?>
<!DOCTYPE svg PUBLIC "-//W3C//DTD SVG 1.1//EN" "http://www.w3.org/Graphics/SVG/1.1/DTD/svg11.dtd">

<svg xmlns="http://www.w3.org/2000/svg" xml:space="preserve" width="99.9989mm" height="100mm" version="1.1" style="shape-rendering:geometricPrecision; text-rendering:geometricPrecision; image-rendering:optimizeQuality; fill-rule:evenodd; clip-rule:evenodd"
viewBox="0 0 14487.35 14487.51"
 xmlns:xlink="http://www.w3.org/1999/xlink"
 xmlns:xodm="http://www.corel.com/coreldraw/odm/2003">
 <defs>
  <style type="text/css">
   <![CDATA[
    .fil1 {fill:none}
    .fil0 {fill:white;fill-rule:nonzero}
   ]]>
  </style>
 </defs>
 <g id="Layer_x0020_1">
  <metadata id="CorelCorpID_0Corel-Layer"/>
  <g id="_105553446699904">
   <g>
    <path class="fil0" d="M-0 11369.77c49.16,-156.16 91.11,-315.36 151.24,-467.76 60.11,-152.39 179.96,-204.3 300.57,-151.61 113.44,51.17 151.24,169.81 86.95,315 -113.44,254.34 -118.33,521.96 -113.44,792.22 0,108.8 -2.27,217.57 0,326.37 3.8,119.03 -6.04,232.73 -132.71,285.81 -126.66,53.08 -212.11,-22.35 -292.26,-106.51l-0.36 -993.52z"/>
    <path class="fil0" d="M10479.95 10258.39c259.75,-105.74 508.9,-205.82 756.19,-308.16 57.01,-26.76 93.44,-84.2 93.44,-147.31 0,-47 -20.31,-91.76 -55.63,-122.62 -79.03,-66.71 -155.39,-138.36 -239.72,-197.87 -40.51,-25.96 -87.63,-39.81 -135.75,-39.81 -1.1,0 -2.3,0.03 -3.39,0.03 -698.72,4.17 -1239.02,-454.86 -1310.09,-1151.95 -20.04,-194.45 40.09,-400.29 82.8,-596.62 24.95,-113.73 94.53,-216.07 134.23,-327.14 98.3,-274.81 206.82,-547.35 282.43,-828.61 245.77,-912.38 1054.88,-1538.97 1980.07,-1516.22 947.87,22.75 1711.99,671.31 1932.04,1597.34 80.91,341.15 235.55,665.63 369.01,992.74 124.4,303.25 165.23,609.52 66.92,927.93 -159.44,533.47 -649.62,899.24 -1205.26,899.24 -5.53,0 -11.36,-0.16 -16.75,-0.16 -101.7,0 -177.7,16.68 -248.04,95.53 -55.57,62.17 -139.14,98.94 -196.23,160.33 -37.52,41.85 -59.47,95.46 -61.93,151.68 0,35.25 48.39,85.29 86.58,102.34 203.03,88.71 410.98,164.9 614.01,253.21 564.49,245.26 862.82,682.3 907.43,1295.23 8.71,122.43 5.29,246.39 2.27,369.2 -3.4,157.7 -82.8,247.91 -212.11,248.66 -129.32,0.77 -205.68,-87.17 -210.98,-246 -5.29,-165.27 0,-332.81 -22.3,-495.81 -35.62,-307.71 -224.31,-576.82 -501.01,-714.55 -233.28,-120.16 -482.45,-208.87 -722.54,-310.44 -302.47,519.3 -945.22,535.6 -1266.6,3.8l-691.16 281.25c5.68,593.22 12.11,1159.54 15.52,1725.85 0,173.98 -71.84,262.69 -206.82,265.34 -134.98,2.65 -214.39,-90.6 -215.14,-259.28 -2.26,-388.38 -2.25,-776.89 0.03,-1165.56 2.65,-540.91 -221.57,-957.87 -663.93,-1261.12 -276.02,-189.53 -550.12,-379.05 -835.19,-576.17 -116.09,155.42 -224.98,303.25 -336.12,449.58 -142.15,186.87 -283.56,233.12 -507.79,167.91 -157.29,-45.85 -314.19,-93.62 -489.24,-145.93l0 166.04c0,796 -0.01,1592.02 -0.01,2388.03 0.74,15.1 1.17,30.47 1.17,45.64 0,36.74 -2.27,73.78 -6.81,110.18 -11.3,93.65 -89.68,164.8 -183.79,166.74 -100.57,9.1 -178.46,-32.22 -211.36,-128.88 -14.72,-52.26 -22.27,-106.4 -22.27,-160.77 0,-6.77 0.14,-13.68 0.36,-20.37 -0.01,-796.03 -0.01,-1592.05 -0.01,-2388.06l0 -178.54c-160.3,49.29 -305.5,94.02 -451.07,137.98 -261.63,79.23 -397.38,33.36 -563.35,-189.53l-322.9 -432.87c-372.79,276.73 -756.18,527.65 -1099.1,826.73 -285.1,249.04 -390.96,606.49 -393.99,987.44 -3.78,393.47 0,786.54 0,1179.62 0,186.87 -68.42,277.48 -206.06,279.74 -137.63,2.26 -216.27,-91.73 -217.02,-272.16 0,-393.08 -11.72,-786.92 3.78,-1179.24 9.45,-233.89 61.25,-465.86 97.54,-725.51l-698.34 -255.88c-328.19,594.74 -1051.08,581.09 -1366.42,0 -221.56,83.39 -447.66,162.62 -668.85,253.97 -169.76,69.74 -282.06,54.97 -342.93,-66.32 -60.88,-121.29 -7.56,-246.01 164.85,-318.41 229.89,-96.28 466.57,-177.02 699.85,-265.35 66.41,-24.79 110.51,-88.45 110.51,-159.51 0,-45.09 -17.86,-88.34 -49.65,-120.25 -370.16,-372.98 -372.04,-375.63 -513.06,-829.37 -91.59,-7.56 -184.01,-21.43 -273.86,-40.94 -289.56,-77.91 -491.08,-341.4 -491.08,-642.14 0,-118.74 31.83,-235.47 91.98,-337.75 38.07,-62.08 58.34,-133.71 58.34,-206.66 0,-24.74 -2.36,-49.58 -6.97,-73.83 -24.95,-159.2 -47.24,-318.41 -70.7,-477.61 -10.42,-66.86 -15.82,-134.98 -15.82,-202.77 0,-581.53 384.63,-1093.01 942.14,-1253.13 175.05,-53.07 340.28,-134.95 511.93,-202.8 1261.69,-501.11 2578.59,441.61 2520.74,1803.93 -3.03,75.81 -3.39,151.61 -13.62,227.42 -6.97,39.29 -10.59,79.42 -10.59,119.46 0,108.8 26.25,216.21 76.42,312.64 220.8,423.04 -89.62,932.1 -564.49,957.87l-130.82 7.97c-66.29,353.81 -268.15,667.89 -561.93,874.81 -97.18,69.73 -70.71,193.68 43.1,236.15 259.75,96.28 520.25,189.53 790.96,290.36 330.07,-450.33 842.39,-687.23 1278.71,-1023.46 53.31,-40.94 84.69,-113.73 122.88,-172.47 47.26,-75.81 77.51,-164.88 138.75,-223.64 132.72,-126.98 282.43,-235.77 420.44,-357.44 30,-31.66 50.87,-71.06 60.2,-113.71 9.84,-35.26 -2.27,-75.81 3.03,-113.73 20.79,-151.61 -29.11,-258.14 -151.24,-362.77 -336.11,-283.14 -526.66,-659.94 -610.24,-1091.3 -80.14,-15.15 -155.77,-22.76 -226.85,-43.59 -311.32,-90.39 -525.77,-376.47 -525.77,-701.51 0,-145.8 43.58,-288.32 124.98,-409.05 28.37,-37.87 43.69,-83.98 43.69,-131.34 0,-29.9 -6.14,-59.57 -18.01,-87 -257.1,-808.65 -184.88,-1586.48 216.66,-2333.47 73.35,-136.08 192.44,-176.65 305.12,-113.71 106.24,59.14 133.08,176.65 70.32,308.18 -8.32,17.05 -17.78,33.35 -26.47,50.04 -192.16,359.06 -293.02,761.07 -293.02,1168.84 0,223.95 30.41,447.61 90.32,663.11 12.86,49.65 31.77,97.79 51.04,155.41l151.24 -13.27c20.04,-136.46 26.86,-265.34 58.6,-387 143.24,-539.34 622.76,-920.86 1179.27,-938.15 330.07,-8.33 660.53,0 990.21,-5.68 73.13,-0.72 144.43,-23.09 204.98,-64.08 295.28,-222.12 361.45,-225.54 655.62,-3.4 20.18,10.08 41.48,18.41 63.17,24.63 -5.14,-115.38 -16.65,-231.51 -33.48,-345.61 -151.22,-743.33 -792.09,-1225.48 -1594.41,-1210.71 -322.17,4.4 -637.13,99.79 -907.69,274.8 -102.47,65.57 -203.42,78.46 -296.43,-11.75 -105.11,-102.72 -75.62,-252.84 67.69,-344.93 548.61,-347.6 1137.68,-428.71 1762.67,-260.79 442.93,114.41 830.69,385.47 1091.26,762.29 39.32,49.81 94.62,84.65 156.51,98.49 665.53,139.69 1142.46,728.1 1142.46,1409.88 0,58.91 -3.68,118.17 -10.87,176.56 -42.74,337.73 -94.53,674.71 -136.49,1012.84 -0.75,8.52 -1.2,17.23 -1.2,25.9 0,45.87 11.46,91.03 33.35,131.3 273.74,483.68 16.63,1037.86 -529.33,1119.35 -90.75,13.65 -122.88,49.29 -142.54,136.08 -86.43,401.16 -307.29,761.83 -625.3,1020.49 -82.04,67.48 -106.24,136.08 -113.44,238.81 -9.45,175.88 13.62,314.99 189.05,411.27 109.26,60.27 201.52,156.18 291.5,245.62 55.57,54.97 124.77,125.09 131.59,194.09 12.85,130.01 93.39,184.98 183.37,246.37 245.75,167.56 488.88,338.89 734.63,506.05 249.47,170.76 456.57,398.67 603.45,663.33l-0.04 -0.03zm-2400.51 -6236.22c-163.33,238.04 -406.82,218.7 -649.19,214.17 -277.9,-5.3 -556.18,-4.94 -834.08,0 -451.39,3.53 -817.68,367.79 -824.99,820.24 -7.19,440.09 -9.45,880.55 1.88,1320.25 19.67,751.29 638.99,1364.61 1401.97,1405.55 737.66,37.91 1427.69,-512.48 1509.73,-1250.9 46.88,-421.12 16.25,-850.21 31.38,-1275.51 17.78,-521.17 -189.42,-922.97 -636.71,-1233.8zm5257.75 4981.56c339.76,-48.04 617.12,-297.43 701.75,-630.82 54.44,-212.65 10.59,-409.75 -68.82,-606.49 -133.08,-332.43 -299.07,-659.56 -374.68,-1006 -164.48,-755.45 -794,-1309.64 -1560.39,-1313.44 -766.39,-3.78 -1425.41,555.7 -1563.8,1321.41 -25.22,129.74 -63.48,257.11 -113.52,379.08 -100.57,255.11 -224.59,501.12 -314.94,758.12 -173.17,495.82 179.59,1056.43 677.54,1089.04 -18.91,-92.5 -52.18,-183.47 -53.33,-274.44 -6.04,-473.06 -13.98,-947.64 0,-1419.2 7.19,-265.34 120.25,-504.15 271.47,-720.2 160.7,-230.84 325.55,-256.62 546.73,-83.77 214.47,173.47 480.81,270.84 756.22,276 263.95,5.27 528.65,12.84 794.06,22.69 232.9,8.74 374.68,153.9 378.08,388.54 3.4,161.1 2.27,322.2 0,483.29 0,155.42 -80.91,252.08 -206.06,256.24 -125.16,4.17 -215.52,-96.27 -217.41,-258.89 0,-144.8 0,-289.98 0,-440.46 -604.94,-34.12 -1215.18,53.44 -1747.92,-382.85 -56.72,170.95 -137.24,310.44 -144.43,454.86 -15.15,259.5 -24.37,524.43 -24.37,784.76 0,181.76 4.61,368.16 12.29,548.38 21.56,374.13 243.11,640.61 590.96,783.12 586.03,239.58 1194.39,-130.39 1309.71,-789.95 27.22,-155.03 113.42,-227.42 246.51,-209.24 125.91,18.2 194.73,127 170.14,278.23 -16.63,99.31 -41.97,199.38 -65.79,311.97zm-9307.1 -1687.56c0,-222.14 34.41,-439.71 -5.68,-642.51 -176.2,-883.58 -1080.58,-1361.19 -1914.28,-1028.76 -205.32,81.87 -412.13,158.83 -617.81,239.17 -257.88,92.21 -455.37,304.25 -529.29,568.59 -86.95,293.78 13.99,576.94 43.49,871.83l189.05 -13.27c29.11,-111.05 46.49,-209.61 80.91,-303.24 35.73,-97.07 81.27,-191.19 134.95,-279.75 135.36,-220.99 297.94,-252.08 506.64,-96.28 246.08,193.21 541.47,314.76 852.14,350.18 128.75,10.62 257.95,16.3 387.15,16.3 73.09,0 147.32,-1.71 219.86,-5.11 240.85,-8.72 415.91,67.85 478.29,322.97l174.56 -0.12zm-609.11 97.41c-608.35,42.84 -1180.78,-20.47 -1709.74,-404.45 -34.41,154.65 -82.42,280.49 -86.58,407.85 -10.97,359.72 -17.78,720.22 0,1079.55 15.86,471.89 396.89,849.53 867.69,860.08 474.51,12.89 891.55,-329.78 924.06,-796.03 24.24,-372.6 4.58,-747.11 4.58,-1147.01zm5894.45 -2259.18c40.84,-296.41 83.19,-580.7 119.48,-865.37 54.82,-430.99 -106.61,-765.32 -459.38,-1010.19 -43.27,-25.77 -88.53,-49.21 -134.68,-69.35 37.23,159.09 56.15,322.56 56.15,486.03 0,142.17 -14.52,284.32 -42.51,423.61 -2.69,10.24 -4.09,20.8 -4.09,31.35 0,17.33 3.72,34.47 10.91,50.21 185.64,283.91 267.31,599.67 282.83,935.14l171.29 18.56zm-770.55 3815.2c-83.39,-78.26 -172.65,-153.08 -264.76,-221.08 -28.99,-16.7 -61.98,-25.56 -95.55,-25.56 -20.82,0 -41.55,3.43 -61.27,10.1 -163.71,69.74 -321.38,153.89 -481.3,232.73 -211.74,104.63 -214.37,104.63 -189.05,341.15 7.71,41.72 34.25,77.54 71.81,97.04 163.71,57.24 330.46,106.53 497.95,151.63 7.39,1.38 14.89,2.09 22.41,2.09 29.79,0 58.59,-11 80.81,-30.9 141.04,-180.4 276.77,-366.52 418.94,-557.19zm-2605.81 4.93c138.38,186.12 271.47,369.2 410.62,547.73 23.05,24.59 55.27,38.57 88.97,38.57 4.24,0 8.52,-0.25 12.73,-0.68 172.4,-46.24 343.3,-99.31 512.7,-156.93 30.48,-16.2 52.16,-45.27 58.96,-79.2 37.81,-221.75 13.99,-261.17 -185.64,-359.35l-226.85 -113.73c-363.72,-176.23 -363.72,-176.62 -671.89,123.59l0.39 0zm634.05 -888.13c-46.13,249.43 -43.85,255.1 147.83,348.35 168.63,82.64 340.3,227.44 507.03,227.44 174.3,0 348.98,-141.4 522.14,-224.03 204.17,-97.79 209.46,-113.71 154.64,-349.86 -211.88,79.03 -437.1,119.77 -663.47,119.77 -228.22,0 -454.84,-41.43 -668.44,-121.75l0.26 0.09zm-3784.31 1682.25l-593.22 0c-15.11,140.27 -13.62,283.16 124.39,382.47 48.9,38.42 109.35,59.37 171.5,59.37 52.04,0 103.11,-14.7 147.24,-42.32 146.7,-84.52 172.02,-223.24 150.09,-399.52zm8979.3 129.65c-43.1,169.43 -11.72,303.25 95.28,374.88 42.38,32.16 94.13,49.63 147.29,49.63 51.21,0 101.2,-16.21 142.7,-46.24 137.63,-94.01 131.95,-233.12 113.44,-379.05l-498.72 0.78zm-6427.56 -4321.23c-198.12,17.43 -315.32,149.35 -302.48,325.22 5.22,145.54 124.53,260.89 269.8,260.89 10.91,0 21.88,-0.67 32.7,-1.97l-0.01 -584.14zm3804.74 598.9c200.75,-29.57 312.67,-158.06 297.17,-324.85 -15.5,-166.79 -137.24,-274.44 -297.17,-265.34l0 590.19zm-5288.75 2062.08c125.52,21.22 237.45,-6.45 278.65,-120.16 11.66,-37.22 17.65,-76.04 17.65,-115.07 0,-50.53 -10,-100.63 -29.35,-147.28 -45.75,-102.72 -153.51,-122.81 -266.95,-101.2l0 483.71zm-2669.32 -487.1c-215.52,0 -325.55,98.18 -313.08,265.35 11.34,155.41 128.17,237.29 313.08,214.53l0 -479.88z"/>
    <path class="fil0" d="M5402.55 11724.96c0,170.58 2.27,341.15 0,511.73 -2.27,156.55 -82.43,248.66 -210.59,249.79 -128.17,1.13 -211.36,-88.32 -212.11,-244.87 -2.01,-350.5 -2.01,-701.12 0,-1051.88 0,-146.31 79.78,-238.81 200.39,-244.49 120.61,-5.69 218.91,89.84 221.93,239.94 4.53,179.66 0.38,360.1 0.38,539.78z"/>
    <path class="fil0" d="M9080.63 11720.4c0,-180.05 -2.27,-360.09 0,-540.15 2.27,-142.9 88.48,-235 210.23,-234.25 116.25,0.01 210.5,94.56 210.5,211.11 0,3.8 -0.13,7.62 -0.3,11.37 5.04,364.67 5.06,729.46 0.01,1094.36 0,144.03 -93.76,227.42 -220.43,224.02 -126.65,-3.4 -197.74,-85.68 -200,-227.44 -2.29,-180.05 -0.01,-360.09 -0.01,-539.02z"/>
   </g>
   <rect class="fil1" x="-0.01" y="-0.01" width="14487.34" height="14487.51"/>
  </g>
 </g>
</svg>
