<?xml version="1.0" encoding="UTF-8"?>
<!DOCTYPE svg PUBLIC "-//W3C//DTD SVG 1.1//EN" "http://www.w3.org/Graphics/SVG/1.1/DTD/svg11.dtd">

<svg xmlns="http://www.w3.org/2000/svg" xml:space="preserve" width="100mm" height="100mm" version="1.1" style="shape-rendering:geometricPrecision; text-rendering:geometricPrecision; image-rendering:optimizeQuality; fill-rule:evenodd; clip-rule:evenodd"
viewBox="0 0 1520.38 1520.38"
 xmlns:xlink="http://www.w3.org/1999/xlink"
 xmlns:xodm="http://www.corel.com/coreldraw/odm/2003">
 <defs>
  <style type="text/css">
   <![CDATA[
    .fil1 {fill:none}
    .fil0 {fill:#FCFCFC;fill-rule:nonzero}
   ]]>
  </style>
 </defs>
 <g id="Layer_x0020_1">
  <metadata id="CorelCorpID_0Corel-Layer"/>
  <g id="_105553446603552">
   <g>
    <path class="fil0" d="M564.2 379.34c14.18,7.12 19.5,18.58 19.14,34.64 -0.78,35.99 0,71.98 -0.28,108 0,19.4 -10.63,31.15 -27.05,30.86 -15.7,-0.25 -26.19,-12.14 -26.27,-30.47 0,-35.6 0.6,-71.19 -0.36,-106.79 -0.43,-16.45 4.75,-28.48 18.86,-36.34l15.95 0.11z"/>
    <path class="fil0" d="M863.12 513.43c5.18,-9.4 7.48,-16.98 12.37,-22 31.31,-32.11 62.94,-63.9 94.89,-95.37 12.19,-12.1 28.36,-12.21 38.99,-1.32 10.63,10.89 10.42,27.16 -1.52,39.16 -31.48,32.04 -63.24,63.61 -94.93,95.33 -8.75,8.76 -20.06,12.07 -30.31,5.94 -7.69,-4.52 -12.69,-13.85 -19.5,-21.75z"/>
    <path class="fil0" d="M1414.94 894.11c-17.05,-18.69 -35.02,-36.63 -53.67,-53.64 -23.71,-21.68 -52.67,-29.19 -82.7,-18.83 -17.09,5.91 -27.08,2.78 -36.72,-10.32 -1.99,-2.38 -4.2,-4.62 -6.52,-6.66l-65.12 -65.32c26.09,-27.02 37.29,-57.81 28.04,-93.59 -9.25,-35.78 -33.85,-58.24 -69.3,-68.31 9.22,-57.38 -14.18,-99.42 -70.89,-118.43 5.42,-25.52 3.3,-50.16 -10.63,-73.05 -13.93,-22.89 -34.38,-36.31 -59.3,-43.36 0.39,-3.88 0.57,-6.51 0.99,-9.15 8.47,-53.4 -24.17,-99.67 -77.52,-108.57 -10.85,-1.81 -22.19,-0.61 -32.96,-2.6 -57.46,-10.68 -114.74,-22.07 -172.24,-32.5 -25.45,-4.63 -50.97,-7.12 -74.44,9.4 -3.7,2.34 -7.99,3.59 -12.37,3.59 -1.28,0 -2.56,-0.11 -3.82,-0.32 -51.54,-10.93 -100.56,18.23 -112.01,68.92 -3.55,15.16 -1.81,31.47 -2.52,47.84 -54.55,19.01 -77.7,58.45 -68.34,116.9 -63.59,18.15 -91.74,85.01 -57.67,143.81 -63.31,26.2 -84.04,104.16 -30.87,159.76 -1.67,1.89 -3.3,3.91 -5.1,5.77 -26.02,26.09 -51.89,52.33 -78.41,77.92 -2.62,2.53 -9.64,2.28 -13.93,1.03 -33.32,-9.72 -63.45,-4.13 -89.11,19.33 -18.33,16.73 -35.8,34.53 -52.67,52.79 -15.23,16.34 -23.72,37.9 -23.72,60.29 0,22.6 8.64,44.35 24.14,60.74 19.39,20.75 39.67,40.72 60.26,60.3 5.15,4.73 11.6,7.8 18.51,8.8 11.55,1.46 20.59,-4.34 25.49,-15.27 1.75,-3.53 2.66,-7.43 2.66,-11.38 0,-7.33 -3.14,-14.32 -8.61,-19.17 -18.68,-19.01 -37.79,-37.59 -56.33,-56.74 -15.28,-15.77 -17.12,-35.42 -3.54,-50.23 16.45,-18.01 33.89,-35.17 51.72,-51.83 11.2,-10.43 30.09,-11.18 40.69,-2.81 6.92,5.46 13.58,11.38 19.81,17.62 42.06,42.06 84.07,84.18 126.01,126.38 47.71,48.31 95.03,96.97 142.78,145.24 20.84,21.07 21.27,37.95 0.5,59.02 -12.8,12.96 -25.59,25.91 -38.57,38.69 -19.46,19.12 -38.67,19.26 -57.96,0.25 -18.01,-17.8 -35.45,-36.03 -53.67,-53.72 -12.83,-12.57 -29.14,-12.82 -40.02,-1.35 -10.88,11.46 -9.68,26.8 2.37,39.16 12.66,13.06 26.05,25.45 38.39,38.84 18.89,20.5 39.35,38.3 67.35,44.71l29.81 0c16.13,-8.72 33.78,-15.49 47.96,-26.7 17.72,-13.95 32.65,-31.29 48.24,-47.7 26.8,-28.19 33.11,-66.14 16.48,-101.13 -3.55,-7.55 -2.48,-11.5 3.01,-16.91 29.71,-29.33 58.59,-59.48 88.83,-88.21 7.09,-6.73 18.04,-10.68 27.9,-12.81 9.86,-2.14 20.24,-0.85 30.45,-0.64 28.36,0.54 56.71,1.07 85.07,2.24 4.64,0.55 8.96,2.66 12.26,5.98 32.18,31.82 64.02,64.08 96.17,96.11 4.93,4.88 6.56,8.65 3.55,15.91 -14.53,36.74 -7.69,69.84 19.32,98.39 15.28,16.09 31.09,31.72 47,47.17 35.7,34.53 89.5,35.6 124.59,0.89 97.03,-96.4 193.56,-193.26 289.6,-290.58 33.6,-34.21 33.57,-86.64 1.31,-121.96zm-600.18 -629.36l-68.91 69.45c-34.67,-21.14 -65.08,-48.41 -80.71,-94.19 53.14,3.13 101.06,17.44 149.62,24.74zm-252.95 6.09c7.13,-10.51 18.99,-16.81 31.66,-16.81 4.39,0 8.76,0.76 12.9,2.25 5.01,2.2 9.05,6.18 11.35,11.18 22.72,55.85 62.7,94.69 116.44,119.89 17.12,8.01 22.72,17.8 18.4,36.35 -4,17.41 -19.42,29.62 -38.46,31.75 -7.9,-3.56 -17.72,-5.02 -23.43,-10.68 -42.8,-41.79 -85.09,-84.1 -126.87,-126.94 -12.09,-12.32 -11.7,-32.82 -1.98,-46.99zm-66 112.56c15.74,-16.27 39.56,-16.48 56.93,0.57 32.28,31.71 64.25,63.74 95.92,96.12 7.59,7.11 11.9,17.09 11.9,27.51 0,5.82 -1.34,11.56 -3.92,16.76 -6.63,15.41 -19.32,22.5 -41.79,23.03 -4.57,-2.53 -15.14,-5.87 -22.3,-12.78 -32.26,-31.11 -63.8,-63.01 -95.07,-95.05 -16.7,-17.05 -16.95,-40.4 -1.67,-56.17zm-69.9 117.01c13.86,-14.24 37.33,-16.87 51.86,-3.17 27.79,26.13 54.45,53.4 80.71,81.16 5.28,5.59 6.7,14.91 9.92,22.5 -1.88,16.41 -8.68,28.48 -22.4,35.6 -13.72,7.12 -29.6,7.72 -41.19,-3.17 -28.11,-26.38 -55.51,-53.61 -81.77,-81.87 -13.44,-14.56 -10.74,-37.13 2.87,-51.05zm-48.42 142.96c12.44,-14.49 33.81,-19.62 48.92,-8.12 15.1,11.5 28.36,26.41 41.19,40.86 4.25,4.81 4.82,12.92 6.06,16.52 -1.1,19.43 -8.22,31.58 -22.69,38.37 -14.46,6.8 -28.89,5.62 -41.01,-4.74 -11.7,-10.02 -22.77,-21.06 -32.88,-32.71 -5.79,-6.98 -8.96,-15.78 -8.96,-24.85 0,-9.3 3.32,-18.3 9.36,-25.35zm594.33 465.72l-81.53 -82.16c10.28,-12.74 20.74,-26.56 32.15,-39.48 12.8,-14.52 14,-29.87 2.06,-41.29 -11.27,-10.68 -26.9,-9.5 -40.09,3.27 -2.99,2.63 -5.82,5.48 -8.41,8.5 -19.64,25.24 -46.79,32.25 -76.81,31.47 -22.12,-0.61 -44.2,-2.6 -66.32,-3.2 -3.21,-0.11 -6.55,-0.17 -9.78,-0.17 -10.01,0 -20.02,0.56 -29.97,1.66 -19.56,2.19 -37.75,11.16 -51.41,25.36 -28.57,29.15 -57.56,57.92 -86.42,86.82 -3.08,3.1 -6.34,6.02 -8.97,8.51l-245.57 -247.54c26.02,-26.2 53.42,-53.93 81.17,-81.34 1.64,-1.02 3.54,-1.56 5.47,-1.56 1.22,0 2.43,0.21 3.57,0.63 71.46,27.09 124.06,-4.34 136.89,-82.27 8.47,-1.64 17.26,-2.7 25.7,-5.09 36.09,-9.89 62.34,-41.23 65.87,-78.64 0.88,-9.33 4.5,-11.43 12.94,-12.32 42.09,-4.31 75.54,-37.48 80.36,-79.7 1.13,-9.33 3.55,-13.14 14.18,-14.24 60.86,-6.16 98.12,-72.91 72.42,-129.79 -4.15,-9.22 -2.59,-13.81 3.9,-20.15 21.66,-21.04 42.54,-42.72 64.09,-64.07 18.89,-18.72 42.54,-19.94 58.91,-3.35 16.38,16.59 15.38,40.19 -3.33,59.16 -14.64,14.84 -29.6,29.4 -44.17,44.32 -12.69,13.03 -13.65,29.08 -2.77,40.3 10.88,11.21 27.15,10.68 40.13,-1.78 8.37,-7.97 16.16,-16.52 24.57,-24.42 16.48,-15.49 39.81,-15.7 55.08,-0.78 7.74,7.29 12.14,17.49 12.14,28.16 0,10.1 -3.95,19.8 -10.97,27.01 -15.31,16.66 -31.9,32.04 -47.64,48.38 -13.4,13.74 -14.43,29.83 -2.98,41.19 11.45,11.36 27.44,9.9 41.08,-3.56 7.94,-7.79 15.45,-15.95 23.64,-23.46 16.8,-15.34 39.67,-15.2 55.05,0 7.47,7.36 11.68,17.44 11.68,27.94 0,10.21 -3.98,20.03 -11.08,27.34 -14.18,15.34 -29.35,29.69 -43.92,44.6 -12.8,13.06 -14.18,29.01 -3.55,40.22 11.27,12 27.19,11.21 40.98,-2.1 7.37,-7.12 14.18,-14.77 21.83,-21.36 17.01,-14.84 40.13,-13.88 55.05,1.74 6.96,7.22 10.85,16.88 10.85,26.93 0,10.25 -4.06,20.1 -11.27,27.36 -19.21,20.29 -39.6,39.51 -58.98,59.66 -15.31,15.95 -10.64,38.45 8.58,45.57 2.94,1.17 6.08,1.77 9.24,1.77 7.17,0 14,-3.08 18.76,-8.47 5.04,-5.63 9.82,-11.6 14.18,-17.8 30.98,31.36 59.23,59.91 86.31,87.36l-242.88 244.84zm400.55 -126.94c-93.79,94.36 -187.78,188.54 -281.98,282.54 -7.09,7.12 -17.44,10.68 -27.58,16.8 -10.21,-5.84 -19.89,-9.47 -27.12,-15.88 -14.85,-13.24 -28.53,-27.87 -42.54,-42.11 -18.33,-18.69 -18.43,-38.66 0,-57.21 47.5,-47.84 95.09,-95.59 142.78,-143.25 45.09,-45.26 90.18,-90.49 135.26,-135.7 21.69,-21.75 39.98,-21.72 61.78,0 13.22,13.13 26.55,26.16 39.49,39.58 16.91,17.73 17.15,37.7 -0.28,55.21l0.18 0z"/>
    <path class="fil0" d="M789.29 1319.47c-0.17,0 -0.36,0 -0.53,0 -14.26,0 -25.88,-11.5 -26.09,-25.81 -0.01,-0.27 -0.01,-0.55 -0.01,-0.82 0,-14.71 11.78,-26.68 26.42,-26.87 14.4,0.28 26.15,11.68 26.91,26.13 0,0.15 0,0.31 0,0.46 0,14.82 -11.94,26.86 -26.7,26.91l0 0z"/>
   </g>
   <rect class="fil1" x="-0" y="-0" width="1520.38" height="1520.38"/>
  </g>
 </g>
</svg>
