<?xml version="1.0" encoding="UTF-8"?>
<!DOCTYPE svg PUBLIC "-//W3C//DTD SVG 1.1//EN" "http://www.w3.org/Graphics/SVG/1.1/DTD/svg11.dtd">

<svg xmlns="http://www.w3.org/2000/svg" xml:space="preserve" width="99.9988mm" height="100mm" version="1.1" style="shape-rendering:geometricPrecision; text-rendering:geometricPrecision; image-rendering:optimizeQuality; fill-rule:evenodd; clip-rule:evenodd"
viewBox="0 0 4114.04 4114.09"
 xmlns:xlink="http://www.w3.org/1999/xlink"
 xmlns:xodm="http://www.corel.com/coreldraw/odm/2003">
 <defs>
  <style type="text/css">
   <![CDATA[
    .fil1 {fill:none}
    .fil0 {fill:white;fill-rule:nonzero}
   ]]>
  </style>
 </defs>
 <g id="Layer_x0020_1">
  <metadata id="CorelCorpID_0Corel-Layer"/>
  <g id="_105553446690432">
   <g>
    <path class="fil0" d="M-0 2528.66c9.64,-41.65 14.14,-84.65 29.78,-124.59 57.32,-146 117.21,-291.27 178.17,-436.28 92.85,-221.17 186.74,-442.12 281.66,-662.87 119.24,-278.86 408.41,-450.58 760.67,-450.76 538.39,-0.36 1076.72,-0.36 1614.98,0 350.44,0 640.68,171.72 758.85,447.97 82.71,193.34 165.09,386.74 247.16,580.2 4.02,8.31 7.28,16.9 9.64,25.63 6,27.53 -3.75,49.39 -36.53,59.91 -6.75,2.3 -13.98,3.48 -21.27,3.48 -24.27,0 -45.88,-12.98 -53.73,-32.26 -17.57,-36.43 -32.14,-73.76 -48.11,-110.73 -69.32,-162.72 -138.1,-325.63 -208.06,-488.27 -103.81,-241.71 -344.23,-384.73 -649.03,-385.09 -537.04,-0.6 -1074.04,-0.6 -1611.01,0 -305.23,0 -546.4,143.03 -649.89,384.19 -142.35,332.77 -284.13,665.6 -425.34,998.49 -37.72,85.91 -57.23,177.1 -57.23,268.75 0,68.17 10.71,136.06 31.8,201.87 3.68,9.18 5.55,18.82 5.55,28.5 0,2.49 -0.13,5.01 -0.37,7.49 -5.25,25.55 -28.18,38.05 -57,39.94 -2.42,0.28 -4.87,0.43 -7.31,0.43 -25.73,0 -47.67,-15.7 -51.73,-37.04 -14.79,-54.51 -27.32,-109.47 -40.82,-164.35l-0.86 -154.62z"/>
    <path class="fil0" d="M4114.04 2683.83c-12.32,51.45 -22.39,103.36 -37.61,154.18 -29.99,96.92 -80.41,188.73 -148.49,271 -158.24,195.56 -489.5,202.76 -656.21,12.24 -139.42,-159.38 -276.62,-320.09 -411.62,-482.13 -59.14,-71.06 -134.78,-102.91 -237.52,-102.46 -377.55,1.62 -755.1,1.62 -1132.65,0 -101.14,0 -175.92,31.12 -234.2,101.11 -133.49,160.21 -269.88,318.71 -407.12,476.75 -143.46,165.6 -409.15,194.75 -589.25,62.97 -39.43,-28.96 -69.74,-67.64 -100.06,-104.35 -18.96,-22.94 -11.78,-47.86 15.75,-65.4 25.28,-16.19 60.21,-11.24 82.17,10.89 7.66,7.86 14.8,16.18 21.32,24.74 121.38,151.3 349.37,155.26 477.29,7.11 137.63,-158.86 274.2,-318.65 409.69,-479.37 76.49,-90.49 179.02,-134.93 310.69,-134.93 386.98,0 773.92,0 1160.83,0 131.35,0 234.63,43.26 310.69,133.94 136.28,161.26 273.59,321.95 411.94,482.06 104.46,120.9 297.09,142.4 420.62,45.79 72.96,-57.03 114.96,-132.05 149.99,-208.96 84.64,-184.85 83.46,-370.79 4.29,-556.9 -22.93,-53.97 -46.28,-107.95 -69.11,-161.92 -18.1,-42.82 -7.39,-70.98 30.21,-80.96 37.61,-9.98 64.28,4.41 81.96,46.06 52.92,126.93 117.85,251.06 131.03,387.52 1.04,4.28 2.7,8.46 4.93,12.41l0.42 148.61z"/>
    <path class="fil0" d="M949.34 1599.08c-37.5,0 -70.6,0.72 -103.71,0 -71.78,-1.8 -113.67,-37.51 -114.53,-97.78 -0.64,-41.56 -0.64,-83.15 0,-124.76 0.86,-60.72 41.25,-95.98 113.78,-98.5 33.11,-1.17 66.42,0 104.46,0 0,-30.22 -0.53,-56.85 0,-83.47 1.61,-63.96 44.03,-100.03 120.21,-101.28 48.21,-0.9 96.38,-0.9 144.53,0 76.07,1.35 118.49,37.78 119.46,101.55 0,25.82 0,51.55 0,83.03 32.14,0 62.25,0 92.35,0 85.71,1.08 125.46,33.91 125.99,105.16 0,38.23 0,76.46 0,114.6 -0.86,67.01 -41.14,100.66 -121.71,101.73 -30.53,0.45 -61.07,0 -96.43,0 0,30.77 0,58.47 0,86.09 -1.29,58.83 -41.03,95.17 -110.88,98.14 -52.07,2.25 -104.46,1.89 -156.53,0 -74.25,-2.16 -115.06,-38.23 -116.78,-100.66 -0.74,-26.54 -0.21,-53.25 -0.21,-83.84zm264.2 83.12c0,-35.98 0,-68.36 0,-100.84 0,-60.99 26.14,-82.4 99.85,-82.76 38.36,0 76.71,0 116.46,0l0 -120.81c-42.21,0 -82.07,0 -121.93,0 -68.24,-0.63 -93.96,-22.67 -94.39,-80.15 0,-34.27 0,-68.54 0,-104.07l-139.27 0c-1.74,3.72 -3.12,7.59 -4.07,11.51 0,31.39 0,62.97 -0.65,94.36 0,55.68 -25.82,77.63 -91.81,78.35 -41.14,0.45 -82.39,0 -124.07,0l0 116.94c2.95,1.42 6.13,2.48 9.43,3.14 38.78,0.45 77.57,0 116.35,0.99 63,1.08 89.56,23.83 90.1,76.91 0,35.35 0,70.7 0,106.69l144 -0.27z"/>
    <path class="fil0" d="M2542.35 2334.54c-194.81,-1.12 -352.05,-134.09 -352.05,-297.65 0,-164.36 158.75,-297.66 354.52,-297.66 195.77,0 354.52,133.3 354.52,297.66 0,0.54 0,1.16 0,1.71 -1.08,163.71 -159.53,295.95 -354.52,295.95 -0.82,0 -1.64,0 -2.46,0l-0 -0zm0.96 -100.48c129.43,-0.1 234.31,-88.26 234.31,-196.91 0,-108.73 -105.02,-196.91 -234.52,-196.91 -129.3,0 -234.23,87.89 -234.52,196.45 0.35,108.76 105.2,196.93 234.75,197.36l-0.02 0z"/>
    <path class="fil0" d="M1995.42 2038.59c-0.96,208.87 -250.91,352.44 -482.12,276.7 -50.25,-16.46 -69.1,-41.65 -53.57,-71.96 15.53,-30.32 45.85,-37.51 94.82,-22.4 95.35,29.6 194.02,10.25 260.66,-51 39.32,-36.29 61.13,-83.6 61.13,-132.65 0,-108.83 -105.12,-197.09 -234.73,-197.09 -5.62,0 -11.29,0.17 -16.88,0.51 -117.85,5.4 -215.24,90.58 -218.34,190.7 0,6.66 0,13.49 0,20.15 2.14,47.95 -14.46,70.43 -53.57,72.41 -39.1,1.98 -63.32,-22.58 -66.43,-69.45 -10.71,-166.23 146.67,-310.79 342.84,-314.84 3.92,-0.1 8.03,-0.17 12,-0.17 195.58,0 354.19,133.17 354.19,297.39 0,0.54 0,1.16 0,1.71l-0.01 -0z"/>
    <path class="fil0" d="M1823.46 1378.51c0,-109.27 105.55,-197.9 235.7,-197.9 130.15,0 235.7,88.62 235.7,197.9 0,109.28 -105.55,197.9 -235.7,197.9 -0.37,0 -0.81,0 -1.18,0 -129.69,-0.53 -234.52,-89.01 -234.52,-197.9 0,0 0,0 0,0zm349.8 0.54c0,-0.05 0,-0.13 0,-0.17 0,-53.15 -51.34,-96.25 -114.64,-96.25 -63.3,0 -114.64,43.1 -114.64,96.25 0,52.62 50.37,95.51 113.03,96.24 63.41,-0.18 115.03,-42.86 116.24,-96.07l0 0z"/>
    <path class="fil0" d="M2967.68 1337.58c-53.26,-1.07 -95.78,-37.64 -95.78,-82.38 0,-45.5 43.95,-82.4 98.14,-82.4 54.18,0 98.13,36.89 98.14,82.38 -0.7,45.66 -45.02,82.4 -99.42,82.4 -0.35,0 -0.73,0 -1.08,0l0 0z"/>
    <path class="fil0" d="M2848.23 1440.31c-1.02,44.86 -44.66,80.81 -98.12,80.81 -54.19,0 -98.14,-36.9 -98.14,-82.4 0,-45.5 43.95,-82.4 98.14,-82.4 1.16,0 2.37,0.02 3.52,0.05 52.95,2.11 94.6,38.79 94.6,83.29 0,0.21 0,0.43 0,0.63l-0 0z"/>
    <path class="fil0" d="M2967.68 1541.06c0.43,0 0.93,-0.01 1.39,-0.01 54.01,0 97.82,36.78 97.82,82.13 0,45.35 -43.8,82.13 -97.82,82.13 -54.01,0 -97.81,-36.78 -97.81,-82.13 0,-0.14 0,-0.3 0,-0.44 0.68,-44.58 43.35,-80.72 96.43,-81.68l-0 0z"/>
    <path class="fil0" d="M3286.2 1440.31c-1.22,44.6 -44.65,80.23 -97.79,80.23 -54.01,0 -97.82,-36.78 -97.82,-82.13 0,-45.1 43.33,-81.78 97.04,-82.13 54.62,0.54 98.57,37.87 98.57,83.74 0,0.08 0,0.19 0,0.28l-0 0z"/>
   </g>
   <rect class="fil1" x="-0" y="-0" width="4114.04" height="4114.09"/>
  </g>
 </g>
</svg>
