<?xml version="1.0" encoding="UTF-8"?>
<!DOCTYPE svg PUBLIC "-//W3C//DTD SVG 1.1//EN" "http://www.w3.org/Graphics/SVG/1.1/DTD/svg11.dtd">

<svg xmlns="http://www.w3.org/2000/svg" xml:space="preserve" width="100mm" height="100mm" version="1.1" style="shape-rendering:geometricPrecision; text-rendering:geometricPrecision; image-rendering:optimizeQuality; fill-rule:evenodd; clip-rule:evenodd"
viewBox="0 0 2642.69 2642.69"
 xmlns:xlink="http://www.w3.org/1999/xlink"
 xmlns:xodm="http://www.corel.com/coreldraw/odm/2003">
 <defs>
  <style type="text/css">
   <![CDATA[
    .fil1 {fill:none}
    .fil0 {fill:white}
   ]]>
  </style>
 </defs>
 <g id="Layer_x0020_1">
  <metadata id="CorelCorpID_0Corel-Layer"/>
  <g id="_105553447482976">
   <g>
    <path class="fil0" d="M2093.31 2041.52c0,-46 41.88,-85.32 90.87,-85.32 88.49,0 81.78,-23.78 81.78,115.19 0,25.95 -4.54,31.12 -4.54,55.46 -65.72,0 -108.11,9.82 -144.5,-26.43 -13.31,-13.26 -23.6,-34.43 -23.6,-58.9zm-1617.4 85.32l-95.41 0c0,-20.83 -21.77,-170.65 13.63,-170.65l68.15 0c69.16,0 121.13,80.21 69.07,141.65 -9.84,11.62 -35.24,29 -55.44,29zm18.17 -354.1c18.7,1.46 65.69,20.79 88.02,28.27l261.81 91.19 384.26 -108.46c19.65,-5.24 36.93,-13.74 56.44,-15.27l0 477.82 -399.81 0 0 -157.85c0,-45.92 -77.24,-56.34 -77.24,8.53l0 149.32 -313.48 0 0 -51.19c33.58,-2.62 75.08,-30.64 91.65,-50.45 51.77,-61.91 54.11,-142.96 2.49,-200.07 -19.95,-22.07 -54.01,-51.54 -94.14,-52.38l0 -119.45zm1521.99 273.04c0,71.08 66.21,144.2 131.75,149.32l0 51.19 -785.98 0 0 -477.82c33.51,7.33 63.19,18.06 98.03,27.4 38.29,10.26 273.43,81.66 297.23,83.52 0,20.99 -3.12,140.46 2.9,155.13 9.07,22.12 75.11,59.68 74.37,-44.18 -0.26,-36.96 -0.03,-73.99 -0.03,-110.95l156.17 -53.87c28.22,-9.46 139.19,-51.37 157.31,-52.79l0 115.19c-37.64,16.96 -48.97,9.24 -92.01,54.39 -22.41,23.51 -39.74,60.11 -39.74,103.47zm-140.84 -255.98c0,-25.99 4.62,-45.16 4.55,-76.79 -0.07,-28.44 -0.01,-56.89 -0.01,-85.33 29.43,7.38 77.55,55.35 96.11,80.4l22.01 39.06c-15.75,7.1 -42.9,15.16 -59.59,20.83 -19.06,6.49 -44.42,17.75 -63.08,21.83zm-1113.1 -166.38c0,60.75 4.55,109.47 4.55,166.38l-122.67 -42.66c15.61,-27.7 25.01,-47.26 48.77,-69.39 39.48,-36.77 22.22,-24.69 69.35,-54.33zm227.16 153.59l4.48 -187.77c-0.22,-27.12 -3.37,-40.2 13.69,-55.4 21.88,1.71 50.73,43.19 125.68,78.23 149.65,69.98 340.88,50.93 461.5,-51.61 28.25,-24.01 15.46,-26.4 53.42,-18.09 0,83.63 4.55,152.67 4.55,234.64 -51.66,-11.3 -310.32,-93.23 -331.69,-92.95 -18.4,0.24 -309.12,91.19 -331.63,92.95zm-77.24 25.6c-25.44,1.99 -45.38,12.08 -68.15,17.06l-7.17 -189.51c-2.96,-18.36 -7.04,-80.22 1.66,-92.97 7.59,-11.12 61.84,-20.42 82.75,-20.42 0,24.13 0.5,48.64 0.18,72.7 -0.33,25.46 -4.92,38.14 -4.75,68.06 0.13,24.19 -0.05,48.38 0.04,72.57 0.12,30.69 -4.56,46.97 -4.56,72.52zm808.7 -290.11c13.67,6.16 36.32,8.68 51.05,11.79 22.47,4.73 33.23,4.4 35.52,26.37 2.33,22.42 1.24,96.73 -2.17,117.89 -17.29,107.23 22.13,158.55 -24.02,146.6 -17.21,-4.46 -29.04,-12.08 -51.29,-12.54 0,-86.86 -9.09,-203.9 -9.09,-290.11zm258.97 -341.3l45.43 0 0 358.36 -45.43 0 0 -358.36zm-1358.44 0l40.89 0 0 358.36 -40.89 0 0 -358.36zm1499.28 358.36l-22.72 0 0 -358.36c19.19,0 49.98,3.5 49.98,25.6l0 307.17c0,10.27 -16.32,25.6 -27.26,25.6zm-1626.49 -25.6l0 -307.17c0,-22.1 30.78,-25.6 49.98,-25.6l0 358.36c-18,0 -49.98,-0.76 -49.98,-25.6zm654.23 -145.05c94.27,59.28 160.27,85.23 268.72,43.29 36.01,-13.92 50.57,-28.11 81.11,-43.29 0,113.57 19.22,95.55 54.52,145.05 -30.66,19.28 -61.14,43.24 -99.31,56.06 -225.23,75.64 -334.74,-48.7 -364.1,-56.06 7.52,-26.44 59.06,-35.19 59.06,-145.05zm427.07 38.4c0,-141.56 -12.85,-78.76 48.76,-158.99 32.14,-41.85 29.28,-67.12 46.65,-67.12l231.71 0 0 358.36 -22.72 0c-6.32,-71.35 -134.27,-89.59 -186.28,-89.59 -21.74,0 -36.26,13.6 -40.89,29.87 -38.8,-8.49 -77.24,-27.98 -77.24,-72.53zm-586.08 68.26c-8.8,-12.34 -18.99,-25.6 -40.89,-25.6 -26.36,0 -104.6,15.31 -125.56,22.89 -19.99,7.23 -31.49,17.65 -43.39,31.78 -28.46,33.82 0.66,34.92 -40.04,34.92l0 -358.36 245.33 0c2.12,23.88 25.46,52.8 38.13,70.85 51.2,72.99 48.19,12.33 48.19,133.93 0,55.38 -33.91,79.12 -81.78,89.59zm-90.87 -533.28c0,-35.43 -3.15,-42.75 13.63,-72.53 19.47,4.26 29.92,9.36 45.43,17.06l0 149.32c-28.56,-7.16 -59.06,-58.93 -59.06,-93.86zm790.53 93.86l0 -149.32c14.47,-9.1 22.6,-15.28 45.43,-17.06 9.65,38.91 26,66.36 -2.84,121.06 -12.58,23.87 -21.23,31.89 -42.59,45.32zm-617.88 -264.5c0,-67.39 1.4,-119.07 63.47,-149.45 90.2,-44.14 142.4,15.21 186.37,15.31 35.94,0.08 130.16,-72.2 214.83,0.71 19.05,16.41 31.31,45.81 34.6,74.16 3.64,31.31 -5.58,73.6 4.83,97.86 7.22,16.83 36.56,57.16 36.56,72.33 0,112.18 18.83,242.68 -56.33,335.34 -53.93,66.49 -144.97,142.48 -243.53,142.48 -86.4,0 -223.95,-119.98 -257.13,-197.97 -34.09,-80.13 -24.56,-187.08 -24.56,-275.58 0,-18.84 30.19,-60.92 39.4,-82.8 9.57,-22.73 1.49,-11.96 1.49,-32.39zm-72.69 -4.27l-7.35 -18.69c-1.64,-6.38 -3.17,-15.59 -4.42,-21.45 -27.75,-130.3 29.69,-108.96 37.91,-161.41 7.94,-50.64 16.06,-67.07 47.55,-96.14 95.9,-88.52 387.62,-85.87 479.54,0.04 29.64,27.7 46.76,46.6 64.65,84.34 15.45,32.6 27.26,76.56 27.26,123.73l-2.86 -5.85c-17.68,-43.23 -14.49,-47.18 -57.25,-87.03 -101.58,-94.69 -247.83,-22.31 -262.47,-22.31 -0.48,0 -42.86,-13.3 -51.5,-15.63 -46.47,-12.53 -54.81,-9.96 -102.97,-9.96 -41.56,0 -110.4,45.56 -129.97,69.93 -35.26,43.91 -38.13,86.55 -38.13,160.45zm-95.41 -98.12c0,60.71 22.02,102.99 22.72,132.25 -34.29,0 -61.64,1.63 -84.6,40.02 -42.4,70.92 -16.09,198.87 65.78,250.69 13.16,8.33 14.34,4.92 23.35,16.47 -104.49,0 -208.99,0 -313.49,0 -74.39,0 -199.9,-8.12 -199.9,110.92l0 281.57c0,51.2 30.58,89.72 71.96,103.08 42.49,13.72 116.62,7.84 173.38,7.84 -11.52,16.16 -73.35,67.17 -86.32,119.46 -37.61,-8.23 -154.47,-75.57 -154.47,-4.27l0 166.38c-70.55,0 -95.01,-7.65 -109.24,46.74 -15.67,59.92 -29.87,268.96 41.09,268.96l68.15 0c0,86.02 -15.84,119.45 59.06,119.45l1690.1 0c67.59,0 54.52,-46.86 54.52,-119.45 92.55,0 91.57,8.41 107.15,-57.23 15.65,-65.92 14.11,-138.83 -0.75,-204.8 -13.6,-60.35 -34.13,-53.67 -106.4,-53.67l0 -162.12c0,-19.02 -18.4,-38.4 -36.35,-38.4 -18.67,0 -100.68,36.68 -122.67,38.4 -12.76,-51.43 -73.47,-101.43 -86.32,-119.46 56.76,0 130.9,5.89 173.38,-7.84 41.38,-13.37 71.96,-51.88 71.96,-103.08l0 -281.57c0,-116.06 -119.04,-110.92 -195.36,-110.92 -106.01,0 -212.02,0 -318.03,0 11.16,-9.11 24.7,-13.3 39.83,-26.59 77.75,-68.28 89.98,-195.74 42.81,-251.53 -24.24,-28.68 -35.46,-29.05 -87.19,-29.05 6.42,-12.56 13.63,-85.34 13.63,-106.66 0,-114.88 -39.57,-216.45 -130.7,-286.83 -93.01,-71.83 -175.87,-62.68 -268.6,-72.31 -91.74,-9.53 -230.27,17.42 -296.98,80.74 -40.81,38.74 -55.16,56.06 -71.4,116.4 -9,33.44 -21.24,31.63 -33.43,58.2 -9.45,20.59 -16.68,50.48 -16.68,78.2z"/>
    <path class="fil0" d="M2097.86 940.83c-17.65,-3.86 -19.68,-5.99 -30.01,-18.75 -48.13,-59.44 -124.46,-128.99 -124.46,-232.96 0,-140.02 209.54,-201.21 283.36,-61.3 58.44,110.78 -64.39,255.56 -128.89,313.01zm-227.16 -268.77c0,89.67 18.65,141.25 73.54,216.79 18.5,25.46 37.35,46.01 57.54,69.69 55.7,65.35 122.47,70.07 178.54,4.27 11.1,-13.03 19.56,-22.37 30.54,-35.31 106.76,-125.86 167.19,-306.27 9.76,-413.36 -146.48,-99.65 -349.93,16.69 -349.93,157.94z"/>
    <path class="fil0" d="M2047.88 689.13c0,-58.75 90.87,-52.89 90.87,0 0,56.36 -90.87,56.36 -90.87,0zm-77.24 0c0,92.74 125.83,153.32 203.54,84.47 76.84,-68.08 27.33,-195.4 -67.24,-195.4 -43.05,0 -69.76,0.67 -103.54,35.03 -14.24,14.49 -32.76,49.76 -32.76,75.89z"/>
    <path class="fil0" d="M807.57 1977.53c0,44.5 77.24,46.78 77.24,0 0,-46.26 -77.24,-44.85 -77.24,0z"/>
    <path class="fil0" d="M1757.11 2126.85c0,55.83 77.24,46.09 77.24,4.27 0,-25.94 -40.66,-48.98 -65.78,-23.37 -2.52,2.57 -11.46,17.61 -11.46,19.1z"/>
   </g>
   <rect class="fil1" x="-0" y="-0" width="2642.69" height="2642.69"/>
  </g>
 </g>
</svg>
