<svg id="Layer_1" data-name="Layer 1" xmlns="http://www.w3.org/2000/svg" viewBox="0 0 342.77 384"><defs><style>.cls-1{fill:#930611;}.cls-2{fill:#fff;}</style></defs><path class="cls-1" d="M411.75,204c3.93,3.8,4.5,7.86,1,9.95a12.15,12.15,0,0,1-6.05,1.25q-102.36.09-204.73.05c-6.38,0-12.75,0-19.12,0-11,.09-19.46,8-19.55,19q-.3,36.18,0,72.36c.1,10.77,8.53,18.73,19.34,18.83,12.5.12,25-.1,37.49.16a8.48,8.48,0,0,1,5.93,2.86c2.65,3.65-.48,8.18-5.52,8.23q-14.25.15-28.49,0c-4.87,0-9.8.14-14.57-.61a29.51,29.51,0,0,1-25.37-29q-.43-36.56,0-73.12c.14-14.34,9.67-25.68,23.59-29.16a17.09,17.09,0,0,0,2-.77Z" transform="translate(-134.53 -204)"/><path class="cls-1" d="M451.5,204c3.88,1.61,8.07,2.72,11.57,4.93,8.92,5.65,13.95,14,14,24.63.19,24.5.33,49,0,73.49-.25,16.95-13.68,29.56-30.93,29.64-27.5.12-55,0-82.5,0q-30.18,0-60.37,0a13.77,13.77,0,0,1-4.07-.36,5.54,5.54,0,0,1,.77-10.76,23.43,23.43,0,0,1,4.11-.11H444.33c13.88,0,21.65-7.69,21.67-21.5q0-33.75,0-67.5c0-13.42-7.84-21.21-21.16-21.22-3,0-6-.06-9,0-3.16.08-6.16-.18-7.53-3.57s.58-5.66,2.93-7.7Z" transform="translate(-134.53 -204)"/><path class="cls-1" d="M246.75,588c-2.86-1.67-3.94-4.09-3.87-7.46.18-9.11.15-18.23,0-27.35a9.21,9.21,0,0,1,3.26-7.53c9.77-8.93,19.3-18.12,29.16-27a44.56,44.56,0,0,0,11.13-14.82c1.86-4.08,4-8.05,6.14-12,1.86-3.4,4.89-4.42,7.8-2.85s3.78,4.63,2.06,8.07c-3.18,6.36-6.29,12.77-9.87,18.9a39.6,39.6,0,0,1-6.94,8.26q-14.25,13.56-28.8,26.8a7.32,7.32,0,0,0-2.72,6.11c.18,7.61-.06,15.24.12,22.85.08,3.42-.85,6.08-3.73,8Z" transform="translate(-134.53 -204)"/><path class="cls-1" d="M174.74,367.54c12.64-10.16,22.69-10.18,34.59,0,8.24-8,17.74-9.83,28.76-4.65.08-1.63.18-2.92.19-4.21,0-12.38-.16-24.75.13-37.12a22.7,22.7,0,0,1,44.29-5.89,35.06,35.06,0,0,1,1.26,10c.09,33.11.05,66.23.05,99.34v5l7.44-6.85c4.58-4.25,9.06-8.61,13.76-12.73a19.23,19.23,0,0,1,24.21-1.17A18.92,18.92,0,0,1,335.36,433c-6.92,14-14.15,27.8-21.32,41.65-1.76,3.39-4.88,4.46-7.8,3s-3.85-4.77-2-8.35c6.63-13,13.38-26,20-39,1-1.94,2.19-4.51,1.65-6.28a12.57,12.57,0,0,0-4.82-6.49c-2.79-1.75-6.05-.85-8.6,1.51q-7.71,7.13-15.39,14.28-6,5.61-12.07,11.25c-2.45,2.29-4.73,5.22-8.68,3.6-4.22-1.73-3.45-5.61-3.45-9.05q0-56.61,0-113.22a28.13,28.13,0,0,0-.42-5.58,11.51,11.51,0,0,0-22.73,1.55c-.23,4-.11,8-.11,12v76.85c0,1.13,0,2.25,0,3.37-.26,3.9-2.35,6.11-5.7,6.08s-5.43-2.19-5.46-6.2c-.08-9.5,0-19,0-28.49A25.75,25.75,0,0,0,238,381a11.54,11.54,0,0,0-12.28-9.73,11.33,11.33,0,0,0-10.62,11.11c-.19,9.74-.07,19.49-.09,29.24a22.1,22.1,0,0,1-.18,3.73c-.56,3.13-2.47,4.9-5.71,4.76s-5.08-2-5.24-5.22c-.17-3.37-.08-6.75-.09-10.12,0-7,.08-14,0-21-.11-7.38-5-12.51-11.63-12.53s-11.54,5.05-11.61,12.45c-.08,9.12,0,18.25,0,27.37,0,1,0,2,0,3-.26,3.91-2.34,6.1-5.69,6.08s-5.44-2.2-5.47-6.21c-.08-10,0-20-.05-30-.06-7-4.25-12-10.34-12.65-7.16-.78-12.84,4.48-12.9,12.22-.09,14.12,0,28.25,0,42.37a23.19,23.19,0,0,1-.18,3.73c-.56,3.14-2.47,4.9-5.71,4.76s-5.07-2-5.24-5.23c-.16-3-.08-6-.08-9,0-11.5.18-23-.06-34.49-.22-10.61,3.48-18.93,13.36-23.48S166.81,360.09,174.74,367.54Z" transform="translate(-134.53 -204)"/><path class="cls-1" d="M146,488c0,9.87.15,19.74-.07,29.61-.12,5.31.76,10.2,4,14.48,5.8,7.73,7.95,16.27,7.14,25.94-.62,7.44-.09,15-.14,22.48,0,4.24-2,6.63-5.37,6.73s-5.79-2.38-5.82-6.75c-.07-10,.06-20-.09-30a11,11,0,0,0-1.6-5.93c-7.59-10.5-9.94-22.08-9.43-35,.72-17.84.18-35.72.19-53.59a29.62,29.62,0,0,1,.15-4.11,5.46,5.46,0,0,1,10.67-.6,16.37,16.37,0,0,1,.38,4.08Q146,471.71,146,488Z" transform="translate(-134.53 -204)"/><path class="cls-1" d="M318.58,268.63a26.26,26.26,0,1,1,26.22,26.14A26.23,26.23,0,0,1,318.58,268.63Zm11.23-.22a14.9,14.9,0,0,0,14.76,15.13,15,15,0,1,0,.23-30A14.91,14.91,0,0,0,329.81,268.41Z" transform="translate(-134.53 -204)"/><path class="cls-1" d="M310.05,269a26.26,26.26,0,1,1-25.32-26.69A26.18,26.18,0,0,1,310.05,269Zm-26.42,14.58a15,15,0,0,0,.58-30,15,15,0,1,0-.58,30Z" transform="translate(-134.53 -204)"/><path class="cls-1" d="M212.23,266.7c0-6.5,0-13,0-19.5,0-4.7,1.9-6.65,6.51-6.75,3.75-.09,7.5-.13,11.24,0,10.93.43,17.47,10.27,13.94,20.6a5.08,5.08,0,0,0,.69,4.08c4.19,5.44,5.29,11.34,2.62,17.6a15.66,15.66,0,0,1-14.21,10c-4.85.29-9.74.29-14.61.18-4.16-.1-6.13-2.22-6.17-6.38C212.18,279.94,212.23,273.32,212.23,266.7Zm11.36,14.72a80.83,80.83,0,0,0,9.61-.08c2.83-.35,4.22-2.59,4.14-5.37s-1.67-4.83-4.49-5.12a91.94,91.94,0,0,0-9.26-.07Zm.06-20.77a93.49,93.49,0,0,0,9.51-3.59c.43-.21.14-3.62-.45-3.83a71.47,71.47,0,0,0-9.06-2.2Z" transform="translate(-134.53 -204)"/><path class="cls-1" d="M393.84,254l10.22-9.41a33,33,0,0,1,3.11-2.7c2.62-1.83,5.2-1.63,7.43.65s2.16,5.46-.47,8c-4.22,4.09-8.62,8-12.94,12-1,.92-2,1.86-2.45,2.31,4.55,4.95,9,9.81,13.44,14.63,1.27,1.37,2.77,2.55,4,4a5.23,5.23,0,0,1-.11,7.46,5.34,5.34,0,0,1-7.73.31c-4.08-3.68-7.95-7.59-11.93-11.38-.6-.58-1.27-1.07-2.53-2.13,0,3.49.07,6.3,0,9.1-.13,3.64-2.24,5.8-5.49,5.83a5.41,5.41,0,0,1-5.65-5.72q-.17-20.43,0-40.86a5.65,5.65,0,0,1,5.58-5.9c3.2,0,5.47,2.46,5.58,6.2C393.9,248.51,393.84,250.72,393.84,254Z" transform="translate(-134.53 -204)"/><path class="cls-1" d="M465.14,363.91c.09,5.16-4.38,8.08-8.08,5.77a115.77,115.77,0,0,1-12.1-8.82c-2.46-2-2.56-4.88-.67-7.41,1.78-2.38,4.46-3.15,7-1.48,4.26,2.81,8.34,5.93,12.34,9.12C464.56,361.85,464.87,363.39,465.14,363.91Z" transform="translate(-134.53 -204)"/><path class="cls-1" d="M416,372.28c0-2.36-.17-4.74,0-7.08a5.48,5.48,0,0,1,10.95.13c.2,4.72.21,9.46,0,14.18a5.15,5.15,0,0,1-5.54,5.31c-3.08,0-5.1-2-5.48-5.44a6.3,6.3,0,0,1-.05-.75v-6.35Z" transform="translate(-134.53 -204)"/><path class="cls-1" d="M382.4,370.69c-1.07-.89-3.41-1.92-3.92-3.53-.57-1.79-.21-4.91,1-6.05a98.07,98.07,0,0,1,12.27-9.19,4.47,4.47,0,0,1,6.6,1.37c1,1.75,1.43,5.41.4,6.35-4.29,3.92-9.22,7.14-14,10.58C384.48,370.48,383.88,370.42,382.4,370.69Z" transform="translate(-134.53 -204)"/><path class="cls-2" d="M329.81,268.41a14.91,14.91,0,0,1,15-14.91,15,15,0,1,1-.23,30A14.9,14.9,0,0,1,329.81,268.41Z" transform="translate(-134.53 -204)"/><path class="cls-2" d="M283.63,283.54a15,15,0,1,1,15.21-14.72A15.12,15.12,0,0,1,283.63,283.54Z" transform="translate(-134.53 -204)"/><path class="cls-2" d="M223.59,281.42V270.78a91.94,91.94,0,0,1,9.26.07c2.82.29,4.41,2.32,4.49,5.12s-1.31,5-4.14,5.37A80.83,80.83,0,0,1,223.59,281.42Z" transform="translate(-134.53 -204)"/><path class="cls-2" d="M223.65,260.65V251a71.47,71.47,0,0,1,9.06,2.2c.59.21.88,3.62.45,3.83A93.49,93.49,0,0,1,223.65,260.65Z" transform="translate(-134.53 -204)"/></svg>