<svg id="Layer_1" data-name="Layer 1" xmlns="http://www.w3.org/2000/svg" viewBox="0 0 383.2 288.41"><defs><style>.cls-1{fill:#fff;}</style></defs><path class="cls-1" d="M796,600.75c1.3-4.12,2.41-8.32,4-12.34s4.76-5.39,7.95-4c3,1.35,4,4.48,2.3,8.31-3,6.71-3.13,13.77-3,20.9,0,2.87-.06,5.74,0,8.61.1,3.14-.16,6.14-3.51,7.54s-5.61-.59-7.73-2.81Z" transform="translate(-796 -347.75)"/><path class="cls-1" d="M1073.18,571.43c6.87-2.79,13.46-5.43,20-8.13a4.29,4.29,0,0,0,1-7.12c-2.09-1.76-4.11-3.65-6.34-5.22a6.66,6.66,0,0,0-3.68-1.05c-18.48.11-32.77-12-34.65-30.39-.53-5.13,1.06-10.56,2.19-15.74.66-3,2.5-5.7,3.55-8.63,2.6-7.25,5.47-14.44,7.47-21.86,6.5-24.07,27.9-40.6,52.37-40,25.07.6,45.28,17.71,51.1,42.14,2.14,9,6.23,17.56,9.76,26.19,3.29,8,4.37,16.08,1.77,24.48a33.28,33.28,0,0,1-32.32,23.72c-2.69,0-4.7.44-6.56,2.52-1.47,1.64-3.68,2.61-5.19,4.23a6.4,6.4,0,0,0-1.64,4c0,.93,1.28,2.25,2.29,2.7,5.37,2.34,10.87,4.35,16.24,6.68,14.93,6.47,22.82,18,24,34.17.23,3.23.14,6.5.06,9.74-.09,4.16-2.19,6.54-5.61,6.56s-5.44-2.3-5.58-6.49c-.14-4.36,0-8.78-.59-13.08A24.16,24.16,0,0,0,1149.57,582c-6.17-3.17-12.76-5.51-19.11-8.19-8,13.7-25,14.13-33.5.1l-18.28,7.42c.15,15.65.32,30.59.41,45.53,0,4.59-1.9,6.93-5.47,7s-5.67-2.39-5.69-6.84q-.09-15.37,0-30.75C1068,582,1062.07,571,1050.37,563c-7.3-5-14.55-10-22.09-15.2-3.07,4.1-5.95,8-8.89,11.86-3.76,4.93-7.5,6.15-13.43,4.43-4.16-1.21-8.31-2.47-12.94-3.85v4.38q0,31.5,0,63a23.41,23.41,0,0,1-.15,4.11,5,5,0,0,1-4.86,4.4c-2.66.24-4.72-.85-5.59-3.4a15.56,15.56,0,0,1-.58-4.78q0-31.5,0-63v-4.71c-4.24,1.3-8.08,2.48-11.93,3.64-6.92,2.09-10.51.88-14.9-5l-8.54-11.42c-9.86,7.3-20,13.92-29.07,21.81-7.54,6.57-10.34,16-10.42,26.05-.1,10.38,0,20.75,0,31.12,0,4.93-1.81,7.32-5.45,7.38s-5.72-2.42-5.74-7.18c0-10.37-.31-20.76.1-31.11.25-6.17,1.62-12.29,2.58-19.14L880,569.64c-8.68,15.69-27.8,15.33-36.14,0-5.86,2.2-11.84,4.29-17.69,6.7-4.49,1.84-7.46,1.45-9.07-1.75s-.2-6.49,4.36-8.4c6.08-2.54,12.34-4.67,18.51-7a4.49,4.49,0,0,0,1.61-7.38c-9.79-9.84-9.84-9.91-13.57-21.88a55.46,55.46,0,0,1-7.24-1.08A17.54,17.54,0,0,1,810.21,503a10.4,10.4,0,0,0,1.36-7.4c-.66-4.2-1.25-8.4-1.87-12.6a34.39,34.39,0,0,1,24.5-38.41c4.63-1.4,9-3.56,13.54-5.35,33.37-13.22,68.2,11.65,66.67,47.59-.08,2-.09,4-.36,6a17.84,17.84,0,0,0,1.74,11.4c5.84,11.16-2.37,24.59-14.93,25.27l-3.46.21a36.41,36.41,0,0,1-14.86,23.08c-2.57,1.84-1.87,5.11,1.14,6.23,6.87,2.54,13.76,5,20.92,7.66,8.73-11.88,22.28-18.13,33.82-27,1.41-1.08,2.24-3,3.25-4.55,1.25-2,2.05-4.35,3.67-5.9,3.51-3.35,7.47-6.22,11.12-9.43a6.33,6.33,0,0,0,1.59-3c.26-.93-.06-2,.08-3,.55-4-.77-6.81-4-9.57-8.89-7.47-13.93-17.41-16.14-28.79-2.12-.4-4.12-.6-6-1.15a19.27,19.27,0,0,1-10.6-29.3,5.77,5.77,0,0,0,.68-5.76q-10.2-32,5.73-61.56c1.94-3.59,5.09-4.66,8.07-3,2.81,1.56,3.52,4.66,1.86,8.13-.22.45-.47.88-.7,1.32a65.22,65.22,0,0,0-5.36,48.33c.34,1.31.84,2.58,1.35,4.1l4-.35c.53-3.6.71-7,1.55-10.21a33.35,33.35,0,0,1,31.19-24.75c8.73-.22,17.47,0,26.19-.15a9.87,9.87,0,0,0,5.42-1.69c7.81-5.86,9.56-5.95,17.34-.09a9.73,9.73,0,0,0,1.67.65,89,89,0,0,0-.89-9.12c-4-19.61-20.95-32.33-42.17-31.94a45.4,45.4,0,0,0-24,7.25c-2.71,1.73-5.38,2.07-7.84-.31-2.78-2.71-2-6.67,1.79-9.1,14.51-9.17,30.09-11.31,46.62-6.88a50.45,50.45,0,0,1,28.86,20.11,7.31,7.31,0,0,0,4.14,2.6,38,38,0,0,1,29.93,41.85c-1.13,8.91-2.5,17.8-3.61,26.72a7.24,7.24,0,0,0,.85,4.15c7.24,12.76.44,27.38-14,29.53-2.4.36-3.25,1.3-3.77,3.59a47.61,47.61,0,0,1-16.54,26.92c-2.17,1.78-2.81,3.59-3,6.3-.25,4.64.36,8.31,5,10.85,2.89,1.59,5.33,4.12,7.71,6.48,1.47,1.45,3.3,3.3,3.48,5.12.34,3.43,2.47,4.88,4.85,6.5,6.5,4.42,12.93,8.94,19.43,13.35A51.57,51.57,0,0,1,1073.18,571.43Zm-63.49-164.52c-4.32,6.28-10.76,5.77-17.17,5.65-7.35-.14-14.71-.13-22.06,0a22,22,0,0,0-21.82,21.64c-.19,11.61-.25,23.23.05,34.83.52,19.82,16.9,36,37.08,37.08,19.51,1,37.76-13.52,39.93-33,1.24-11.11.43-22.43.83-33.65C1027,425.71,1021.52,415.11,1009.69,406.91Zm139.06,131.42a22.38,22.38,0,0,0,18.56-16.64c1.44-5.61.28-10.81-1.82-16-3.52-8.77-7.91-17.4-9.91-26.54-4.35-19.93-21-34.55-41.27-34.65s-37.7,14.66-41.36,34.86a53.14,53.14,0,0,1-3,10c-2.66,6.73-5.94,13.22-8.33,20-4.58,13.08,4.75,27.87,17.92,28.73-.5-2.44-1.38-4.84-1.41-7.24-.16-12.48-.37-25,0-37.44.19-7,3.18-13.3,7.18-19,4.25-6.09,8.61-6.77,14.46-2.21a32.82,32.82,0,0,0,20,7.28q10.47.21,21,.6c6.16.23,9.91,4.06,10,10.25.09,4.25.06,8.5,0,12.75,0,4.1-2.14,6.65-5.45,6.76s-5.7-2.54-5.75-6.83c0-3.82,0-7.65,0-11.62-16-.9-32.14,1.41-46.23-10.1-1.5,4.51-3.63,8.19-3.82,12a332.86,332.86,0,0,0-.33,35.17c.57,9.87,6.43,16.9,15.63,20.66,15.5,6.32,31.59-3.44,34.64-20.84.72-4.09,3-6,6.52-5.52,3.33.48,5.15,3.35,4.5,7.34C1150.05,532.72,1149.38,535.36,1148.75,538.33ZM902.59,493.81c0-5.86.91-11.6-.15-16.95-4.66-23.31-28.58-35.91-50.63-27.14-5.43,2.16-10.9,4.19-16.34,6.31a22.33,22.33,0,0,0-14,15c-2.3,7.75.37,15.22,1.15,23l5-.35c.77-2.93,1.23-5.53,2.14-8a42.91,42.91,0,0,1,3.57-7.38c3.58-5.83,7.88-6.65,13.4-2.54A44.75,44.75,0,0,0,869.27,485a122.76,122.76,0,0,0,16.05.29c6.37-.23,11,1.79,12.65,8.52Zm-16.11,2.57c-16.09,1.13-31.23-.54-45.22-10.67-.91,4.08-2.18,7.4-2.29,10.76-.29,9.49-.47,19,0,28.48a23.49,23.49,0,0,0,22.95,22.69c12.55.34,23.58-8.7,24.44-21C887,516.81,886.48,506.93,886.48,496.38Zm155.9-59.6c1.08-7.82,2.2-15.32,3.16-22.83,1.45-11.37-2.82-20.19-12.15-26.65a32.25,32.25,0,0,0-3.56-1.83,56.16,56.16,0,0,1,.36,24,3.18,3.18,0,0,0,.18,2.15c4.91,7.49,7.07,15.82,7.48,24.67ZM1022,537.43a77.35,77.35,0,0,0-7-5.83,5.07,5.07,0,0,0-4.15-.41c-4.33,1.84-8.5,4.06-12.73,6.14-5.6,2.76-5.67,2.76-5,9a3.63,3.63,0,0,0,1.9,2.56c4.33,1.51,8.74,2.81,13.17,4a3.21,3.21,0,0,0,2.73-.76C1014.65,547.37,1018.24,542.46,1022,537.43Zm-68.92.13c3.66,4.91,7.18,9.74,10.86,14.45a3.23,3.23,0,0,0,2.69,1c4.56-1.22,9.08-2.62,13.56-4.14a3.05,3.05,0,0,0,1.56-2.09c1-5.85.37-6.89-4.91-9.48l-6-3C961.22,529.65,961.22,529.64,953.07,537.56Zm16.77-23.43c-1.22,6.58-1.16,6.73,3.91,9.19,4.46,2.18,9,6,13.41,6,4.61,0,9.23-3.73,13.81-5.91,5.4-2.58,5.54-3,4.09-9.23A50.3,50.3,0,0,1,969.84,514.13ZM869.76,558.51H854.07c-.4,3.7-.36,7.47,3.29,10.09a7.35,7.35,0,0,0,8.43.45C869.67,566.82,870.34,563.16,869.76,558.51Zm237.49,3.42c-1.14,4.47-.31,8,2.52,9.89a6.45,6.45,0,0,0,7.67.09c3.64-2.48,3.49-6.15,3-10Zm-170-114c-5.24.46-8.34,3.94-8,8.58a7.14,7.14,0,0,0,8,6.83Zm100.63,15.8c5.31-.78,8.27-4.17,7.86-8.57s-3.63-7.24-7.86-7ZM898,518.13c3.32.56,6.28-.17,7.37-3.17a10.11,10.11,0,0,0-.31-6.92c-1.21-2.71-4.06-3.24-7.06-2.67Zm-70.6-12.85c-5.7,0-8.61,2.59-8.28,7,.3,4.1,3.39,6.26,8.28,5.66Z" transform="translate(-796 -347.75)"/><path class="cls-1" d="M938.89,610.12c0,4.5.06,9,0,13.5-.06,4.13-2.18,6.56-5.57,6.59s-5.59-2.33-5.61-6.46q-.08-13.87,0-27.75c0-3.86,2.11-6.3,5.3-6.45s5.79,2.37,5.87,6.33C939,600.62,938.89,605.38,938.89,610.12Z" transform="translate(-796 -347.75)"/><path class="cls-1" d="M1036.17,610c0-4.75-.06-9.5,0-14.25.06-3.77,2.34-6.2,5.56-6.18a5.57,5.57,0,0,1,5.56,5.87q.2,14.43,0,28.87c0,3.8-2.48,6-5.83,5.91s-5.23-2.26-5.29-6C1036.11,619.47,1036.17,614.72,1036.17,610Z" transform="translate(-796 -347.75)"/></svg>