<svg id="Layer_1" data-name="Layer 1" xmlns="http://www.w3.org/2000/svg" viewBox="0 0 382.86 384"><defs><style>.cls-1{fill:#fcfcfc;}</style></defs><path class="cls-1" d="M961.5,348c4,2,5.5,5.22,5.4,9.73-.22,10.11,0,20.22-.08,30.34,0,5.45-3,8.75-7.63,8.67-4.43-.07-7.39-3.41-7.41-8.56,0-10,.17-20-.1-30-.12-4.62,1.34-8,5.32-10.21Z" transform="translate(-768.61 -348)"/><path class="cls-1" d="M828.39,357.32c1.78-2.28,3-4.76,5-6.22,2.48-1.82,5.54-1.38,8,.61a78.46,78.46,0,0,1,5.67,5.43c7.42,7.39,14.87,14.75,22.22,22.21,2.88,2.93,3.36,6.52,1.5,9.54a7,7,0,0,1-8.35,3.33,9.82,9.82,0,0,1-4-2.49c-8.8-8.66-17.57-17.35-26.2-26.17C830.74,362.06,829.94,359.9,828.39,357.32Z" transform="translate(-768.61 -348)"/><path class="cls-1" d="M1045.83,385.67c1.46-2.64,2.11-4.77,3.49-6.18q13.25-13.53,26.77-26.79c3.44-3.4,8-3.43,11-.37s2.94,7.63-.43,11c-8.88,9-17.84,17.87-26.78,26.78-2.47,2.46-5.66,3.39-8.55,1.67C1049.16,390.51,1047.75,387.89,1045.83,385.67Z" transform="translate(-768.61 -348)"/><path class="cls-1" d="M820.42,685.65A7.41,7.41,0,0,1,813,678.3a7.51,7.51,0,1,1,15-.2A7.37,7.37,0,0,1,820.42,685.65Z" transform="translate(-768.61 -348)"/><path class="cls-1" d="M1144.68,608.35c-4.81-5.25-9.88-10.29-15.14-15.07-6.69-6.09-14.86-8.2-23.33-5.29-4.82,1.66-7.64.78-10.36-2.9a17.08,17.08,0,0,0-1.84-1.87l-18.37-18.35c7.36-7.59,10.52-16.24,7.91-26.29S1074,522.22,1064,519.39c2.6-16.12-4-27.93-20-33.27,1.53-7.17.93-14.09-3-20.52s-9.7-10.2-16.73-12.18c.11-1.09.16-1.83.28-2.57,2.39-15-6.82-28-21.87-30.5-3.06-.51-6.26-.17-9.3-.73-16.21-3-32.37-6.2-48.59-9.13-7.18-1.3-14.38-2-21,2.64a6.54,6.54,0,0,1-4.57.92c-14.54-3.07-28.37,5.12-31.6,19.36-1,4.26-.51,8.84-.71,13.44-15.39,5.34-21.92,16.42-19.28,32.84-17.94,5.1-25.88,23.88-16.27,40.4-17.86,7.36-23.71,29.26-8.71,44.88-.47.53-.93,1.1-1.44,1.62-7.34,7.33-14.64,14.7-22.12,21.89-.74.71-2.72.64-3.93.29-9.4-2.73-17.9-1.16-25.14,5.43-5.17,4.7-10.1,9.7-14.86,14.83a24.78,24.78,0,0,0,.12,34c5.47,5.83,11.19,11.44,17,16.94a9.81,9.81,0,0,0,5.22,2.47c3.26.41,5.81-1.22,7.19-4.29a7.18,7.18,0,0,0-1.68-8.58c-5.27-5.34-10.66-10.56-15.89-15.94-4.31-4.43-4.83-9.95-1-14.11,4.64-5.06,9.56-9.88,14.59-14.56,3.16-2.93,8.49-3.14,11.48-.79a65.48,65.48,0,0,1,5.59,4.95q17.8,17.72,35.55,35.5c13.46,13.57,26.81,27.24,40.28,40.8,5.88,5.92,6,10.66.14,16.58-3.61,3.64-7.22,7.28-10.88,10.87-5.49,5.37-10.91,5.41-16.35.07-5.08-5-10-10.12-15.14-15.09-3.62-3.53-8.22-3.6-11.29-.38s-2.73,7.53.67,11c3.57,3.67,7.35,7.15,10.83,10.91,5.33,5.76,11.1,10.76,19,12.56H879c4.55-2.45,9.53-4.35,13.53-7.5,5-3.92,9.21-8.79,13.61-13.4,7.56-7.92,9.34-18.58,4.65-28.41-1-2.12-.7-3.23.85-4.75,8.38-8.24,16.53-16.71,25.06-24.78,2-1.89,5.09-3,7.87-3.6s5.71-.24,8.59-.18c8,.15,16,.3,24,.63a5.87,5.87,0,0,1,3.46,1.68c9.08,8.94,18.06,18,27.13,27,1.39,1.37,1.85,2.43,1,4.47-4.1,10.32-2.17,19.62,5.45,27.64,4.31,4.52,8.77,8.91,13.26,13.25,10.07,9.7,25.25,10,35.15.25q41.06-40.62,81.7-81.63C1153.79,633,1153.78,618.27,1144.68,608.35ZM975.36,431.55l-19.44,19.51c-9.78-5.94-18.36-13.6-22.77-26.46C948.14,425.48,961.66,429.5,975.36,431.55ZM904,433.26a10.81,10.81,0,0,1,12.57-4.09,6.32,6.32,0,0,1,3.2,3.14c6.41,15.69,17.69,26.6,32.85,33.68,4.83,2.25,6.41,5,5.19,10.21-1.13,4.89-5.48,8.32-10.85,8.92-2.23-1-5-1.41-6.61-3q-18.11-17.61-35.79-35.66C901.15,443,901.26,437.24,904,433.26Zm-18.62,31.62c4.44-4.57,11.16-4.63,16.06.16q13.66,13.36,27.06,27a10.58,10.58,0,0,1,2.25,12.44c-1.87,4.33-5.45,6.32-11.79,6.47-1.29-.71-4.27-1.65-6.29-3.59-9.1-8.74-18-17.7-26.82-26.7C881.14,475.87,881.07,469.31,885.38,464.88Zm-19.72,32.87c3.91-4,10.53-4.74,14.63-.89,7.84,7.34,15.36,15,22.77,22.8,1.49,1.57,1.89,4.19,2.8,6.32-.53,4.61-2.45,8-6.32,10s-8.35,2.17-11.62-.89c-7.93-7.41-15.66-15.06-23.07-23C861.06,508,861.82,501.66,865.66,497.75ZM852,537.91c3.51-4.07,9.54-5.51,13.8-2.28s8,7.42,11.62,11.48c1.2,1.35,1.36,3.63,1.71,4.64-.31,5.46-2.32,8.87-6.4,10.78s-8.15,1.58-11.57-1.33a88.48,88.48,0,0,1-9.28-9.19A10.92,10.92,0,0,1,852,537.91Zm167.67,130.83-23-23.08c2.9-3.58,5.85-7.46,9.07-11.09,3.61-4.08,3.95-8.39.58-11.6-3.18-3-7.59-2.67-11.31.92a24.3,24.3,0,0,0-2.37,2.39c-5.54,7.09-13.2,9.06-21.67,8.84-6.24-.17-12.47-.73-18.71-.9a76.35,76.35,0,0,0-11.22.42,23.83,23.83,0,0,0-14.5,7.12c-8.06,8.19-16.24,16.27-24.38,24.39-.87.87-1.79,1.69-2.53,2.39L830.35,599c7.34-7.36,15.07-15.15,22.9-22.85a2.94,2.94,0,0,1,2.55-.26c20.16,7.61,35-1.22,38.62-23.11,2.39-.46,4.87-.76,7.25-1.43a25.38,25.38,0,0,0,18.58-22.09c.25-2.62,1.27-3.21,3.65-3.46a25.42,25.42,0,0,0,22.67-22.39c.32-2.62,1-3.69,4-4,17.17-1.73,27.68-20.48,20.43-36.46-1.17-2.59-.73-3.88,1.1-5.66,6.11-5.91,12-12,18.08-18,5.33-5.26,12-5.6,16.62-.94s4.34,11.29-.94,16.62c-4.13,4.17-8.35,8.26-12.46,12.45-3.58,3.66-3.85,8.17-.78,11.32s7.66,3,11.32-.5c2.36-2.24,4.56-4.64,6.93-6.86,4.65-4.35,11.23-4.41,15.54-.22a10.85,10.85,0,0,1,.33,15.5c-4.32,4.68-9,9-13.44,13.59-3.78,3.86-4.07,8.38-.84,11.57s7.74,2.78,11.59-1c2.24-2.19,4.36-4.48,6.67-6.59,4.74-4.31,11.19-4.27,15.53,0a11,11,0,0,1,.17,15.53c-4,4.31-8.28,8.34-12.39,12.53-3.61,3.67-4,8.15-1,11.3,3.18,3.37,7.67,3.15,11.56-.59,2.08-2,4-4.15,6.16-6,4.8-4.17,11.32-3.9,15.53.49a10.88,10.88,0,0,1-.12,15.25c-5.42,5.7-11.17,11.1-16.64,16.76-4.32,4.48-3,10.8,2.42,12.8a7.08,7.08,0,0,0,7.9-1.88,54.44,54.44,0,0,0,4-5c8.74,8.81,16.71,16.83,24.35,24.54Zm113-35.66q-39.69,39.76-79.55,79.37c-2,2-4.92,3-7.78,4.72-2.88-1.64-5.61-2.66-7.65-4.46-4.19-3.72-8.05-7.83-12-11.83-5.17-5.25-5.2-10.86,0-16.07q20.1-20.16,40.28-40.24,19.08-19.07,38.16-38.12c6.12-6.11,11.28-6.1,17.43,0,3.73,3.69,7.49,7.35,11.14,11.12C1137.47,622.55,1137.54,628.16,1132.62,633.08Z" transform="translate(-768.61 -348)"/><path class="cls-1" d="M1025,612.1a7.36,7.36,0,0,1-7.51-7.25,7.55,7.55,0,0,1,7.45-7.78,7.75,7.75,0,0,1,7.59,7.34A7.56,7.56,0,0,1,1025,612.1Z" transform="translate(-768.61 -348)"/></svg>