<svg id="Layer_1" data-name="Layer 1" xmlns="http://www.w3.org/2000/svg" viewBox="0 0 384 267.49"><defs><style>.cls-1{fill:#fff;}</style></defs><path class="cls-1" d="M768,592.48c.9-4.63,1.32-9.41,2.78-13.85,5.35-16.23,10.94-32.38,16.63-48.5q13-36.88,26.29-73.69c11.13-31,38.12-50.09,71-50.11q75.38-.06,150.74,0c32.71,0,59.8,19.09,70.83,49.8q11.58,32.24,23.07,64.5a18.45,18.45,0,0,1,.9,2.85c.56,3.06-.35,5.49-3.41,6.66a5.3,5.3,0,0,1-7-3.2c-1.64-4.05-3-8.2-4.49-12.31-6.47-18.09-12.89-36.2-19.42-54.28-9.69-26.87-32.13-42.77-60.58-42.81q-75.19-.1-150.37,0c-28.49,0-51,15.9-60.66,42.71q-19.93,55.49-39.7,111a86.22,86.22,0,0,0-2.37,52.32,10,10,0,0,1,.48,4c-.49,2.84-2.63,4.23-5.32,4.44a4.89,4.89,0,0,1-5.51-4.07c-1.38-6.06-2.55-12.17-3.81-18.27Z" transform="translate(-768 -406.3)"/><path class="cls-1" d="M1152,609.73c-1.15,5.72-2.09,11.49-3.51,17.14A94.47,94.47,0,0,1,1134.63,657c-14.77,21.74-45.69,22.54-61.25,1.36q-19.52-26.58-38.42-53.6c-5.52-7.9-12.58-11.44-22.17-11.39q-52.86.27-105.72,0c-9.44,0-16.42,3.46-21.86,11.24-12.46,17.81-25.19,35.43-38,53-13.39,18.41-38.19,21.65-55,7-3.68-3.22-6.51-7.52-9.34-11.6-1.77-2.55-1.1-5.32,1.47-7.27,2.36-1.8,5.62-1.25,7.67,1.21A29.51,29.51,0,0,1,794,649.7c11.33,16.82,32.61,17.26,44.55.79Q857.82,624,876.79,597.2c7.14-10.06,16.71-15,29-15q54.18,0,108.35,0c12.26,0,21.9,4.81,29,14.89q19.08,26.89,38.45,53.59c9.75,13.44,27.73,15.83,39.26,5.09,6.81-6.34,10.73-14.68,14-23.23,7.9-20.55,7.79-41.22.4-61.91-2.14-6-4.32-12-6.45-18-1.69-4.76-.69-7.89,2.82-9s6,.49,7.65,5.12c4.94,14.11,11,27.91,12.23,43.08a6,6,0,0,0,.46,1.38Z" transform="translate(-768 -406.3)"/><path class="cls-1" d="M856.61,489.14c-3.5,0-6.59.08-9.68,0-6.7-.2-10.61-4.17-10.69-10.87q-.09-6.93,0-13.87c.08-6.75,3.85-10.67,10.62-10.95,3.09-.13,6.2,0,9.75,0,0-3.36-.05-6.32,0-9.28.15-7.11,4.11-11.12,11.22-11.26q6.75-.15,13.49,0c7.1.15,11.06,4.2,11.15,11.29,0,2.87,0,5.73,0,9.23,3,0,5.81,0,8.62,0,8,.12,11.71,3.77,11.76,11.69,0,4.25,0,8.5,0,12.74-.08,7.45-3.84,11.19-11.36,11.31-2.85.05-5.7,0-9,0,0,3.42,0,6.5,0,9.57-.12,6.54-3.83,10.58-10.35,10.91-4.86.25-9.75.21-14.61,0-6.93-.24-10.74-4.25-10.9-11.19C856.56,495.51,856.61,492.54,856.61,489.14Zm24.66,9.24c0-4,0-7.6,0-11.21,0-6.78,2.44-9.16,9.32-9.2,3.58,0,7.16,0,10.87,0V464.54c-3.94,0-7.66,0-11.38,0-6.37-.07-8.77-2.52-8.81-8.91,0-3.81,0-7.62,0-11.57h-13a7.73,7.73,0,0,0-.38,1.28c0,3.49,0,7-.06,10.49,0,6.19-2.41,8.63-8.57,8.71-3.84.05-7.69,0-11.58,0v13a3.34,3.34,0,0,0,.88.35c3.62.05,7.24,0,10.86.11,5.88.12,8.36,2.65,8.41,8.55,0,3.93,0,7.86,0,11.86Z" transform="translate(-768 -406.3)"/><path class="cls-1" d="M1005.3,570.9a33.09,33.09,0,1,1,33.32-32.9A33.09,33.09,0,0,1,1005.3,570.9Zm.09-11.17a21.89,21.89,0,1,0-21.91-21.94A22,22,0,0,0,1005.39,559.73Z" transform="translate(-768 -406.3)"/><path class="cls-1" d="M954.25,538c-.09,23.22-23.42,39.18-45,30.76-4.69-1.83-6.45-4.63-5-8s4.28-4.17,8.85-2.49c8.9,3.29,18.11,1.14,24.33-5.67A21.91,21.91,0,0,0,919.65,516c-11,.6-20.09,10.07-20.38,21.2,0,.74,0,1.5,0,2.24.2,5.33-1.35,7.83-5,8.05s-5.91-2.51-6.2-7.72c-1-18.48,13.69-34.55,32-35A33.06,33.06,0,0,1,954.25,538Z" transform="translate(-768 -406.3)"/><path class="cls-1" d="M938.2,464.62a22,22,0,1,1,21.89,22A22,22,0,0,1,938.2,464.62Zm32.65.06A10.7,10.7,0,1,0,960,475.36,10.89,10.89,0,0,0,970.85,464.68Z" transform="translate(-768 -406.3)"/><path class="cls-1" d="M1045,460.07a9.16,9.16,0,1,1,9.38-9.16A9.28,9.28,0,0,1,1045,460.07Z" transform="translate(-768 -406.3)"/><path class="cls-1" d="M1033.85,471.49a9.16,9.16,0,1,1-8.83-9.33A9.27,9.27,0,0,1,1033.85,471.49Z" transform="translate(-768 -406.3)"/><path class="cls-1" d="M1045,482.69a9.13,9.13,0,1,1-9,9.08A9.2,9.2,0,0,1,1045,482.69Z" transform="translate(-768 -406.3)"/><path class="cls-1" d="M1074.73,471.49a9.13,9.13,0,1,1-9.2-9.34A9.31,9.31,0,0,1,1074.73,471.49Z" transform="translate(-768 -406.3)"/></svg>