<svg id="Layer_1" data-name="Layer 1" xmlns="http://www.w3.org/2000/svg" viewBox="0 0 291.13 409.36"><defs><style>.cls-1{fill:#930611;}.cls-2{fill:#fff;}</style></defs><path class="cls-1" d="M842,744.6c-7.79-1.8-14.82-4.86-20.06-11.27a31.54,31.54,0,0,1-7.28-20.61q0-70.44,0-140.88c0-5.08,2.4-7.82,6.49-7.83s6.55,2.83,6.55,8.19q0,69.43,0,138.89c0,10.14,4.71,17.24,13.14,19.5a29.4,29.4,0,0,0,7.5.75q111.75.06,223.51,0c13.79,0,20.72-7.07,20.74-21,0-6.79-.05-13.57,0-20.36,0-4.87,2.67-7.81,6.69-7.7,3.86.11,6.3,2.91,6.33,7.65.06,8.25.24,16.51-.15,24.74-.7,15-10.6,26.2-25.3,29.27a15.75,15.75,0,0,0-1.87.62Z" transform="translate(-814.65 -335.24)"/><path class="cls-1" d="M960.23,509.55h-111c-14.71,0-21.49,6.78-21.5,21.44,0,4.12.08,8.25,0,12.37-.11,4.35-2.68,7.13-6.41,7.2s-6.5-2.66-6.57-7c-.11-6.11-.16-12.25.16-18.35a30.52,30.52,0,0,1,24.3-28c2.87-.54,3.61-1.62,3.58-4.41-.14-12.63-.22-25.28,0-37.92.68-46.14,20.65-81.79,60.85-104.16,38.31-21.33,77.87-20.46,116,1.52,30.42,17.55,49,44.38,55.78,78.85,2,10.08,1.89,20.61,2.24,31s.15,20.75,0,31.13c0,2.43.64,3.46,3.15,4a30.25,30.25,0,0,1,24.72,28.43c.41,9.44.21,18.89.22,28.34q0,52.29,0,104.59a42.63,42.63,0,0,1-.12,4.38c-.4,3.62-2.85,5.91-6.27,6a6.3,6.3,0,0,1-6.59-6.08,42.82,42.82,0,0,1-.09-4.39q0-64.47,0-128.94c0-10-5-17.15-13.52-19.23a33.69,33.69,0,0,0-7.92-.64Q1015.72,509.52,960.23,509.55Zm-64.78-13.44c0-13.35-.06-26.36,0-39.37a92.88,92.88,0,0,1,.76-12.71,64.64,64.64,0,0,1,128.61,7.86c.27,13.29.07,26.6.09,39.91V496h39.69c0-13.45,0-26.6,0-39.75,0-24.87-6.84-47.51-22.39-67.12-18.43-23.25-42.59-36.69-72-39.55-28.07-2.73-53.6,4.83-75.5,22.76-23.37,19.12-36.65,43.94-38.32,74.26-.87,15.78-.44,31.64-.57,47.47a13.13,13.13,0,0,0,.29,2Zm116.23.08c.09-1,.2-1.64.19-2.28-.12-15.15.47-30.35-.54-45.44-1.75-26.35-24.52-46.66-51.12-46.66s-49.41,20.3-51.14,46.65c-1,15.49-.37,31.08-.45,46.63,0,.34.31.68.51,1.1Z" transform="translate(-814.65 -335.24)"/><path class="cls-1" d="M934.83,657.39c0-8.24.11-16.48-.09-24.72a9.12,9.12,0,0,0-2-5.28c-18.58-21.7-8-54.16,19.73-60.56,14.32-3.3,31.11,3.73,38.73,16.23,8.6,14.09,7.49,31.55-3,43.39a10.3,10.3,0,0,0-2.76,7.48c.12,15.81.07,31.63,0,47.45,0,7.39-2.18,9.6-9.44,9.61q-16.15,0-32.3,0c-6.54,0-8.94-2.37-9-8.86C934.79,673.88,934.83,665.63,934.83,657.39Zm37.42,20.13v-4.7c0-14,.14-27.94-.08-41.9A14.62,14.62,0,0,1,977,619.3c6.42-6.25,8.26-14.1,5.95-22.7a23.21,23.21,0,0,0-20.66-17.25,23.6,23.6,0,0,0-23.56,13.77,23.15,23.15,0,0,0,5.24,26.7A13,13,0,0,1,948.21,630c-.16,14.36-.06,28.73-.06,43.09v4.4Z" transform="translate(-814.65 -335.24)"/><path class="cls-2" d="M895.45,496.11H856.1a13.13,13.13,0,0,1-.29-2c.13-15.83-.3-31.69.57-47.47,1.67-30.32,15-55.14,38.32-74.26,21.9-17.93,47.43-25.49,75.5-22.76,29.46,2.86,53.62,16.3,72,39.55,15.55,19.61,22.4,42.25,22.39,67.12,0,13.15,0,26.3,0,39.75H1025v-4.2c0-13.31.18-26.62-.09-39.91A64.64,64.64,0,0,0,896.25,444a92.88,92.88,0,0,0-.76,12.71C895.39,469.75,895.45,482.76,895.45,496.11Z" transform="translate(-814.65 -335.24)"/><path class="cls-2" d="M1011.68,496.19H909.13c-.2-.42-.52-.76-.51-1.1.08-15.55-.56-31.14.45-46.63,1.73-26.35,24.54-46.66,51.14-46.65s49.37,20.31,51.12,46.66c1,15.09.42,30.29.54,45.44C1011.88,494.55,1011.77,495.19,1011.68,496.19Z" transform="translate(-814.65 -335.24)"/><path class="cls-2" d="M972.25,677.52h-24.1v-4.4c0-14.36-.1-28.73.06-43.09a13,13,0,0,0-4.29-10.21,23.15,23.15,0,0,1-5.24-26.7,23.6,23.6,0,0,1,23.56-13.77A23.21,23.21,0,0,1,982.9,596.6c2.31,8.6.47,16.45-5.95,22.7a14.62,14.62,0,0,0-4.78,11.62c.22,14,.08,27.93.08,41.9Z" transform="translate(-814.65 -335.24)"/></svg>