<svg id="Layer_1" data-name="Layer 1" xmlns="http://www.w3.org/2000/svg" viewBox="0 0 384 384"><defs><style>.cls-1{fill:#fff;}.cls-2{fill:#930611;}</style></defs><path class="cls-1" d="M1105.5,348H1152v46.5c-4.1-5-7.08-5.21-11.69-.61-5.41,5.38-10.59,11-16.25,16.09-3.92,3.53-5.5,7.51-5.9,12.71-1,13.09-6.74,23.83-17.75,32-2.65-2.73-5.27-5.57-8-8.24a9.35,9.35,0,0,0-3.7-2.37,5.35,5.35,0,0,0-6.44,2.59c-1.69,2.87-1,5.53,1.24,7.82l25.45,25.45c5.64,5.64,11.29,11.27,17.07,17-.76.85-1.31,1.51-1.91,2.12q-12.45,12.46-24.92,24.91c-2.35,2.33-3.92,5-1.82,7.92a11.19,11.19,0,0,0,5.79,3.46c7.6,2.09,12.67,9,11.72,16.48a15.3,15.3,0,0,1-14.17,13.63c-7.68.43-13.91-4.24-15.8-12.07-.68-2.82-1.53-5.26-4.66-6.16s-5.2.84-7.19,2.87c-3.51,3.56-7.07,7.07-10.6,10.61l-19.18,19.31c-9.21-9.23-18-18.25-27.1-27a10.56,10.56,0,0,0-6.77-2.75c-3.12,0-4.16,3-4.86,5.81-2,8.39-8.38,13-16.66,12.41a15.28,15.28,0,0,1-13.79-14c-.66-8.25,4-14.57,12.52-16.56,2.75-.65,5-1.64,5.78-4.57s-.63-5-2.6-7q-14-13.87-27.84-27.83c-.83-.84-1.59-1.75-1.72-1.89l68-68c-.21.73-.59,2.16-1,3.56-4.41,14-8.86,28.08-13.25,42.12-1.29,4.13-.34,7,3.16,8.43,11.56,4.73,24.87,4.77,33-8.29,5-7.92,9.94-15.92,13.86-24.38,2.67-5.76,5.77-8.58,12.34-9.48,11.43-1.57,21.35-6.83,28.36-16.51,2.43-3.35,2.12-6.85-.65-9s-6.3-1.63-8.8,1.7a30.39,30.39,0,0,1-17.61,11.29,77,77,0,0,1-12.54,2,7.55,7.55,0,0,0-6.93,4.73c-3.64,7.52-7.32,15-11.32,22.37a101.33,101.33,0,0,1-8.4,12.82c-2.9,3.76-7.13,4.49-11.43,2.65l14.4-45.67c2.14-6.79,4.31-13.56,6.37-20.36.88-2.93.21-5.54-2.57-7.13s-5.29-1.05-7.53,1.1c-1.26,1.2-2.48,2.46-3.72,3.69l-20.88,20.91c1.2-6.1,2.17-11.95,7.24-16.34,5.85-5.06,11-10.92,16.56-16.3a10.29,10.29,0,0,1,4.43-2.49c13.81-3.39,27.69-6.54,41.49-10a14.19,14.19,0,0,0,6-3.36c5.9-5.58,11.56-11.41,17.29-17.17C1110.73,355.05,1110.56,352,1105.5,348Z" transform="translate(-768 -348)"/><path class="cls-1" d="M814.5,732H768V685.5c4.17,5,7.11,5.16,11.72.58,5.75-5.73,11.59-11.39,17.17-17.29a14.17,14.17,0,0,0,3.33-6c3.42-13.68,6.53-27.43,9.92-41.12a11.75,11.75,0,0,1,2.85-5c5.45-5.69,11.33-11,16.59-16.81,5.58-6.21,13.51-5.88,20.46-8.53a10.56,10.56,0,0,1-2.44,3.39c-8,8.05-16.11,16.06-24.1,24.15-1.19,1.21-2.71,2.72-2.85,4.2a8.89,8.89,0,0,0,1.57,5.76c1.81,2.35,4.59,2,7.23,1q30-10.68,59.95-21.31c1.22-.44,2.49-.77,3.87-1.18,1.43,6-.62,10.17-5.24,12.87-9.15,5.35-18.32,10.72-27.79,15.46-11.64,5.83-9,4-10.49,14.8-1.29,9.53-4.37,18.19-12.3,24.41-3.76,2.95-4.48,6.34-2.13,9.29s5.81,2.95,9.6,0C855.57,676,860,664.54,861.63,651.8c.38-2.94,1.6-4.18,4-5.46,9.37-5,18.89-9.73,27.78-15.47,12.15-7.85,15.08-18.08,10.28-31.82-1.9-5.45-4.62-6.78-10.07-4.85q-17.28,6.12-34.55,12.29c-2.78,1-5.58,1.92-8.36,2.88a171.19,171.19,0,0,1,13.36-14.26c2.09-2.05,4.21-4.09,3.36-7.41s-3.7-4.26-6.77-5a15.08,15.08,0,0,1-7.31-25.2,15.14,15.14,0,0,1,25.69,6.85c.73,3,1.48,5.88,5,6.72,3.35.79,5.35-1.3,7.4-3.38,3.78-3.83,7.6-7.6,11.39-11.41l14.78-14.84c3.78,3.88,7.23,7.48,10.75,11s7.05,6.93,10.64,10.45c-18.45,13-15.59,32.64-7,42,5,5.53,11.17,8.8,18.63,9.25,11.2.69,19.6-4.39,25.31-12.75l24.2,24.18-20.13,20.12c-11.83-16.64-30.79-15-40.94-6.13a26.48,26.48,0,0,0-9.56,19.26C929,669.74,934,678,942.23,683.7c-8.15,8.13-16.08,16.06-24.57,24.54a22.73,22.73,0,0,0-2.23-3q-20.37-20.46-40.82-40.84c-3.24-3.23-6.59-3.51-9.25-1s-2.57,6.14.83,9.49c2.75,2.7,5.68,5.21,9.44,8.62-6.42,4.68-11.5,9.54-17.53,12.43-5.47,2.62-11.93,3.34-18,4.4-3.22.56-5.86,1.4-8.19,3.84-5.87,6.15-12,12.07-18,18.08C809.3,724.92,809.45,727.9,814.5,732Z" transform="translate(-768 -348)"/><path class="cls-2" d="M814.5,732c-5-4.1-5.2-7.08-.6-11.69,6-6,12.11-11.93,18-18.08,2.33-2.44,5-3.28,8.19-3.84,6.1-1.06,12.56-1.78,18-4.4,6-2.89,11.11-7.75,17.53-12.43-3.76-3.41-6.69-5.92-9.44-8.62-3.4-3.35-3.62-6.84-.83-9.49s6-2.26,9.25,1q20.45,20.39,40.82,40.84a22.73,22.73,0,0,1,2.23,3c8.49-8.48,16.42-16.41,24.57-24.54-8.27-5.69-13.2-14-12.67-24.81a26.48,26.48,0,0,1,9.56-19.26c10.15-8.82,29.11-10.51,40.94,6.13l20.13-20.12L976,601.46c-5.71,8.36-14.11,13.44-25.31,12.75-7.46-.45-13.6-3.72-18.63-9.25-8.57-9.4-11.43-29.06,7-42-3.59-3.52-7.15-6.95-10.64-10.45s-7-7.14-10.75-11L902.9,556.29c-3.79,3.81-7.61,7.58-11.39,11.41-2,2.08-4,4.17-7.4,3.38-3.56-.84-4.31-3.7-5-6.72a15.14,15.14,0,0,0-25.69-6.85,15.08,15.08,0,0,0,7.31,25.2c3.07.73,5.88,1.55,6.77,5s-1.27,5.36-3.36,7.41a171.19,171.19,0,0,0-13.36,14.26c2.78-1,5.58-1.89,8.36-2.88q17.28-6.13,34.55-12.29c5.45-1.93,8.17-.6,10.07,4.85,4.8,13.74,1.87,24-10.28,31.82-8.89,5.74-18.41,10.51-27.78,15.47-2.43,1.28-3.65,2.52-4,5.46-1.65,12.74-6.06,24.22-16.71,32.36-3.79,2.9-7.3,2.83-9.6,0s-1.63-6.34,2.13-9.29c7.93-6.22,11-14.88,12.3-24.41,1.47-10.83-1.15-9,10.49-14.8,9.47-4.74,18.64-10.11,27.79-15.46,4.62-2.7,6.67-6.91,5.24-12.87-1.38.41-2.65.74-3.87,1.18q-30,10.63-59.95,21.31c-2.64.94-5.42,1.33-7.23-1a8.89,8.89,0,0,1-1.57-5.76c.14-1.48,1.66-3,2.85-4.2,8-8.09,16.06-16.1,24.1-24.15a10.56,10.56,0,0,0,2.44-3.39c-6.95,2.65-14.88,2.32-20.46,8.53-5.26,5.84-11.14,11.12-16.59,16.81a11.75,11.75,0,0,0-2.85,5c-3.39,13.69-6.5,27.44-9.92,41.12a14.17,14.17,0,0,1-3.33,6c-5.58,5.9-11.42,11.56-17.17,17.29-4.61,4.58-7.55,4.43-11.72-.58V681c6.13-6.2,12.33-12.33,18.34-18.64a11.63,11.63,0,0,0,2.84-5c3.3-13.32,6.28-26.72,9.7-40a19.23,19.23,0,0,1,4.4-7.91c6-6.4,12.45-12.3,18.41-18.69,3.63-3.89,7.69-6.62,12.89-7.72,1.81-.38,3.55-1.08,5.77-1.77-4.11-8.66-4.48-17.22-.19-25.67a26.5,26.5,0,0,1,12.73-12.24c12.28-5.77,24.82-2.07,35.22,10.62,1-.9,1.95-1.77,2.88-2.69,7.07-7.06,14.12-14.16,21.22-21.2,3.94-3.91,6.72-3.95,10.59-.11,10.28,10.23,20.49,20.51,30.77,30.74,2,2,3.77,4.41,2.27,6.9a10.68,10.68,0,0,1-5.88,4.36c-8.31,2.23-13.15,8.31-12.54,16.6a15.12,15.12,0,0,0,14,13.73c8.2.48,14.15-4.47,16.34-12.9a9.92,9.92,0,0,1,4.23-5.55c2.49-1.43,4.94.18,6.94,2.2q17.05,17.15,34.18,34.22c3.78,3.8,3.78,6.81,0,10.6-10,10-19.87,20.08-30.05,29.87a10.25,10.25,0,0,1-6.84,2.5c-2.9-.1-3.9-2.88-4.54-5.65-1.9-8.16-8.53-13.15-16.26-12.5a15.53,15.53,0,0,0-14,14.25c-.61,7.44,4.47,14,12.44,16,6.78,1.71,8.25,6.55,3.39,11.44q-16.5,16.63-33.12,33.15c-4.16,4.15-6.92,4.1-11.12-.11-9.9-9.9-19.77-19.81-30.71-30.78a57.09,57.09,0,0,1-3.58,4.93c-9.31,10.29-21.42,14.63-34.78,16.44a10.46,10.46,0,0,0-5.46,2.54c-6.6,6.25-13,12.72-19.45,19.12Z" transform="translate(-768 -348)"/><path class="cls-2" d="M1105.5,348c5.06,4,5.23,7.05.61,11.69-5.73,5.76-11.39,11.59-17.29,17.17a14.19,14.19,0,0,1-6,3.36c-13.8,3.44-27.68,6.59-41.49,10a10.29,10.29,0,0,0-4.43,2.49c-5.57,5.38-10.71,11.24-16.56,16.3-5.07,4.39-6,10.24-7.24,16.34L1034,404.42c1.24-1.23,2.46-2.49,3.72-3.69,2.24-2.15,4.82-2.66,7.53-1.1s3.45,4.2,2.57,7.13c-2.06,6.8-4.23,13.57-6.37,20.36L1027,472.79c4.3,1.84,8.53,1.11,11.43-2.65a101.33,101.33,0,0,0,8.4-12.82c4-7.33,7.68-14.85,11.32-22.37a7.55,7.55,0,0,1,6.93-4.73,77,77,0,0,0,12.54-2A30.39,30.39,0,0,0,1095.23,417c2.5-3.33,6-3.86,8.8-1.7s3.08,5.63.65,9c-7,9.68-16.93,14.94-28.36,16.51-6.57.9-9.67,3.72-12.34,9.48-3.92,8.46-8.9,16.46-13.86,24.38-8.17,13.06-21.48,13-33,8.29-3.5-1.42-4.45-4.3-3.16-8.43,4.39-14,8.84-28.08,13.25-42.12.45-1.4.83-2.83,1-3.56l-68,68c.13.14.89,1.05,1.72,1.89q13.91,13.92,27.84,27.83c2,2,3.4,4,2.6,7s-3,3.92-5.78,4.57c-8.49,2-13.18,8.31-12.52,16.56a15.28,15.28,0,0,0,13.79,14c8.28.63,14.62-4,16.66-12.41.7-2.85,1.74-5.78,4.86-5.81a10.56,10.56,0,0,1,6.77,2.75c9.09,8.72,17.89,17.74,27.1,27l19.18-19.31c3.53-3.54,7.09-7,10.6-10.61,2-2,4-3.78,7.19-2.87s4,3.34,4.66,6.16c1.89,7.83,8.12,12.5,15.8,12.07a15.3,15.3,0,0,0,14.17-13.63c1-7.5-4.12-14.39-11.72-16.48a11.19,11.19,0,0,1-5.79-3.46c-2.1-2.87-.53-5.59,1.82-7.92q12.51-12.4,24.92-24.91c.6-.61,1.15-1.27,1.91-2.12-5.78-5.76-11.43-11.39-17.07-17l-25.45-25.45c-2.28-2.29-2.93-4.95-1.24-7.82a5.35,5.35,0,0,1,6.44-2.59,9.35,9.35,0,0,1,3.7,2.37c2.77,2.67,5.39,5.51,8,8.24,11-8.17,16.75-18.91,17.75-32,.4-5.2,2-9.18,5.9-12.71,5.66-5.09,10.84-10.71,16.25-16.09,4.61-4.6,7.59-4.43,11.69.61V399c-6.48,6.55-13,13.07-19.42,19.69a7,7,0,0,0-2.14,3.72c-1.39,15.77-7.55,29.11-19.7,39.49-.37.32-.67.73-1.26,1.38.92,1,1.79,2,2.72,2.92q12.58,12.6,25.18,25.19c4.29,4.31,4.27,7.05-.07,11.41-7.84,7.86-15.7,15.69-23.79,23.77,8.49,5.67,13.15,13.28,13.33,23.23a26.64,26.64,0,0,1-8.17,19.88c-9.52,9.58-29.48,12.91-42.83-5.47L1061.09,579c-4.33,4.33-8.61,8.71-13,13-3.32,3.23-6.48,3.22-9.8,0-7.38-7.29-14.68-14.65-22-22-.87-.87-1.77-1.71-2.89-2.78-6.1,8.79-14.15,13.74-25,13.4a27,27,0,0,1-19.48-9.08c-9.05-9.68-11.58-29.64,6.35-42.25-.72-.81-1.38-1.64-2.12-2.39q-12-12.07-24.12-24.13c-5.83-5.83-5.81-7.6.13-13.54q21.21-21.21,42.37-42.47a13.77,13.77,0,0,0,3.19-5.3c3.29-10.21,6.28-20.52,9.6-30.72a16,16,0,0,1,3.56-6c7.21-7.45,14.53-14.81,22-22a15.51,15.51,0,0,1,6.65-3.74c13.07-3.28,26.24-6.14,39.3-9.45a17.43,17.43,0,0,0,7.26-4c6.13-5.66,11.94-11.67,17.87-17.54Z" transform="translate(-768 -348)"/></svg>