<svg id="Layer_1" data-name="Layer 1" xmlns="http://www.w3.org/2000/svg" viewBox="0 0 300.08 384"><defs><style>.cls-1{fill:#fff;}</style></defs><path class="cls-1" d="M813.76,732c-3-1.83-3.8-4.49-3.78-7.92.11-20.37,0-40.73.06-61.09.05-31.76,20.21-57.4,51.09-65.15,16-4,31.91-8.11,47.86-12.2,6.17-1.58,8.11-4.56,8.63-10.94.67-8.13-1.31-13.86-8.22-19.66-16.92-14.23-24.66-33.5-24.95-55.6-.18-13.12,0-26.24,0-39.36v-4.52c-2.95,0-5.55.09-8.14,0-8.76-.38-13.11-8.6-8.42-16a166.25,166.25,0,0,1,9.81-14.61c5.59-7.09,8.33-15,9.6-23.89,1.67-11.72,4.09-23.34,6.09-35,1.64-9.54,7.67-15,16.42-18h100.51a3,3,0,0,0,.86.63c9.18,2.62,14,8.88,15.66,18.11q3.93,22.5,8.14,44.95a13.63,13.63,0,0,0,2,4.75q7.26,11.15,14.74,22.14c2.52,3.7,3.41,7.53,1.29,11.61s-5.86,5.53-10.33,5.4c-2.21-.07-4.43,0-7,0,0,5.71,0,10.94,0,16.18-.12,11.49.3,23-.58,34.46-1.71,22.12-12,39.86-29.54,53.37-2.23,1.73-3.28,3.41-3,6.21.23,3,0,6,.06,9,.09,6.38,2.38,9.27,8.64,10.88,15.83,4.05,31.71,8,47.49,12.2a115.18,115.18,0,0,1,15.42,5.63c4.37,1.88,5.61,5,3.89,8.27-1.64,3.06-4.57,3.22-8.77,1.86-14.2-4.57-28.53-8.77-43.35-13.28L1012.65,653c8.49,1.7,9.84,7.69,9.71,15.19q-.42,25.29,0,50.61c.1,6.2-1.93,10.59-7.58,13.21H905.27c-5.66-2.61-7.68-7-7.59-13.21q.41-25.49,0-51c-.13-7.44,1.52-13.14,9.72-14.82-4.37-17.44-8.66-34.56-13.07-52.13-12.78,3.43-25.37,5.86-37.26,10.2-20.2,7.36-32.56,22.31-35,43.77-1.49,13.34-.56,26.94-.69,40.42,0,.19.3.38.42.52h44.44c0-1.44,0-2.66,0-3.89.07-4.6,2.23-7.22,5.84-7.1,3.45.12,5.4,2.63,5.4,7.11,0,10.88-.09,21.75.07,32.62,0,3.37-1,5.77-3.84,7.5H870c-3-1.83-3.91-4.47-3.78-7.9.21-5.55.06-11.11.06-16.61h-45c0,5.74-.16,11.21.06,16.67.14,3.45-.83,6.07-3.83,7.84Zm81.9-276.19v3.65c0,13,0,26,0,39,.14,34.76,24.76,61.72,59.37,65.05,33.82,3.26,66.19-23.16,68.65-57,1.2-16.53.46-33.21.58-49.82,0-.21-.2-.42-.43-.87Zm146.05-11.75c-3.91-5.89-7.84-11.2-11.08-16.89-2.4-4.23-5.32-5.53-10.16-5.47-24,.28-48,.14-72,.11-4.39,0-6.94-2.22-6.88-5.67s2.53-5.38,6.68-5.55c1,0,2,0,3,0h71.92c-.74-4-1.38-7.52-2.06-11.25H903.46a12.39,12.39,0,0,0-3,.08c-.69.18-1.68.8-1.81,1.38-.69,3.1-1.14,6.25-1.75,9.79h23c2.84,0,5.24.85,6.27,3.77,1.37,3.88-1.26,7.34-5.84,7.42-8,.13-16,0-24,.09-1.28,0-3.14.17-3.72,1-4.78,6.81-9.33,13.78-14.29,21.21Zm-27,154.14c-2.11-.51-3.93-.65-5.45-1.38-3.54-1.72-5.68-.28-8.27,2.23a57,57,0,0,1-40.89,16.64c-16.66,0-30.92-6.14-42.58-18-1.63-1.66-3-2.21-5.15-1.4s-4.51,1.32-7.09,2c4.59,18.35,9.14,36.55,13.7,54.77h12.74c.12-1.89.17-3.62.36-5.33.52-4.82,3.89-8.7,8.68-8.79q19.28-.39,38.57,0c4.61.1,8,3.93,8.52,8.54.23,1.82.28,3.67.42,5.58H1001C1005.59,634.87,1010.11,616.76,1014.75,598.2Zm4.37-210.33c-1.24-6.88-2.38-13.25-3.54-19.63s-4.37-9-10.85-9c-13.11,0-26.22,0-39.34,0-16.73,0-33.46,0-50.2,0-4.55,0-8.6,1.42-9.79,5.91-2,7.37-3.06,15-4.56,22.73Zm-110,299H939.3c4.51-10.11,10.92-15.32,19.76-15.47,11-.19,17.93,5.63,21.63,15.36h30.15V664.5H1007c-6.5,0-13,.07-19.5,0-6.17-.09-10-3.75-10.63-9.85-.14-1.44-.21-2.9-.31-4.42H943.43c-.08,1.14-.17,2-.21,2.87-.37,7.76-4.09,11.37-11.77,11.42-3.88,0-7.75,0-11.63,0H909.11Zm.1,33.64h101.51V698.25c-9.55,0-18.8-.06-28,.09a4,4,0,0,0-2.81,2.07C976,709,969.41,713.83,960,713.84s-16-4.81-19.84-13.42c-.38-.86-1.35-2.06-2.06-2.07-9.58-.13-19.16-.09-28.92-.09Zm19.65-152.1c-.05,7.49.52,14.59-4.26,20.26,19.83,22.24,54.31,19.78,70.83-.23-5-5.59-4-12.79-4.23-20.06C970.26,577.15,949.87,577.15,928.86,568.39ZM960,682.58a10,10,0,1,0,9.94,10A10,10,0,0,0,960,682.58Z" transform="translate(-809.98 -348)"/><path class="cls-1" d="M1046.28,732c-2.8-1.72-3.9-4.13-3.84-7.49.18-9.37.06-18.74.07-28.11,0-4.72,1.63-7.1,5-7.44,3.57-.36,5.58,1.71,6.46,6.82h44.49c0-13.14,0-26.1,0-39a16.65,16.65,0,0,0-1-5.88c-2.53-6.46-5-13-8.09-19.17-2.38-4.69-2.71-7.84.41-9.86s6.07-.85,9.12,3.69a62.72,62.72,0,0,1,11,34.85c.21,21.61,0,43.22.14,64.84,0,3.13-1.45,5.12-3.77,6.8h-3.75c-3-1.77-4-4.39-3.84-7.84.22-5.55.06-11.12.06-16.69h-45c0,5.7-.16,11.17,0,16.63.13,3.43-.84,6.07-3.78,7.9Z" transform="translate(-809.98 -348)"/></svg>